<?xml version="1.0" encoding="utf-8"?>
<!-- Generator: Adobe Illustrator 23.0.1, SVG Export Plug-In . SVG Version: 6.00 Build 0)  -->
<svg version="1.1" xmlns="http://www.w3.org/2000/svg" xmlns:xlink="http://www.w3.org/1999/xlink" x="0px" y="0px"
	 viewBox="0 0 358.1 48.86" style="enable-background:new 0 0 358.1 48.86;" xml:space="preserve">
<g id="Layer_2">
</g>
<g id="Layer_1">
	<g>
		<path d="M203.24,41.89c0.13-0.5,0.26-0.93,0.41-1.27s0.31-0.63,0.48-0.87s0.36-0.43,0.57-0.59s0.42-0.29,0.66-0.42
			c0.09-0.05,0.18-0.08,0.28-0.1s0.19-0.03,0.27-0.03s0.14,0.02,0.18,0.06s0.08,0.1,0.1,0.16s0.05,0.13,0.07,0.21
			s0.05,0.15,0.09,0.21s0.08,0.12,0.14,0.16s0.14,0.06,0.25,0.06c0.07,0,0.15-0.02,0.21-0.06s0.13-0.09,0.18-0.16
			s0.09-0.15,0.12-0.24s0.04-0.19,0.04-0.3c0-0.06-0.01-0.12-0.02-0.17s-0.03-0.11-0.06-0.17c-0.14-0.23-0.31-0.41-0.53-0.53
			s-0.5-0.18-0.85-0.18c-0.29,0-0.56,0.04-0.82,0.13s-0.5,0.21-0.73,0.36s-0.44,0.33-0.64,0.54s-0.39,0.43-0.57,0.67
			c-0.11,0.18-0.21,0.37-0.3,0.57s-0.17,0.42-0.24,0.64s-0.14,0.43-0.19,0.64s-0.11,0.4-0.15,0.58c-0.02,0.06-0.04,0.13-0.06,0.19
			s-0.07,0.1-0.13,0.11c-0.11,0.02-0.22,0.03-0.33,0.04s-0.21,0.03-0.3,0.07c-0.08,0.04-0.14,0.11-0.19,0.2s-0.07,0.19-0.07,0.3
			c0,0.13,0.04,0.22,0.11,0.28s0.15,0.1,0.24,0.12s0.17,0.05,0.25,0.07s0.12,0.06,0.13,0.12c0,0.02,0.01,0.05,0.01,0.1
			c0,0.08-0.01,0.18-0.02,0.29s-0.03,0.24-0.05,0.38s-0.04,0.28-0.07,0.42s-0.05,0.28-0.07,0.41s-0.05,0.24-0.07,0.35
			s-0.04,0.18-0.05,0.23c-0.03,0.11-0.05,0.21-0.07,0.29s-0.02,0.15-0.02,0.22c0,0.09,0.01,0.18,0.04,0.26s0.07,0.16,0.12,0.22
			s0.12,0.12,0.19,0.15s0.16,0.06,0.26,0.06c0.06,0,0.11-0.01,0.17-0.04s0.1-0.06,0.14-0.1s0.08-0.09,0.11-0.14s0.05-0.1,0.06-0.15
			c0.06-0.26,0.11-0.52,0.14-0.78s0.06-0.52,0.09-0.78s0.06-0.52,0.1-0.78s0.09-0.52,0.16-0.79c0.22-0.06,0.42-0.11,0.6-0.14
			s0.34-0.06,0.49-0.08s0.29-0.03,0.41-0.05s0.25-0.03,0.36-0.06c0.07-0.01,0.12-0.04,0.17-0.09s0.08-0.11,0.11-0.17
			s0.05-0.13,0.06-0.2s0.02-0.13,0.02-0.17c0-0.08-0.02-0.14-0.05-0.19s-0.08-0.08-0.13-0.11s-0.12-0.04-0.2-0.05
			s-0.16-0.01-0.25-0.01c-0.12,0-0.24,0.01-0.34,0.02s-0.21,0.03-0.32,0.05s-0.21,0.03-0.32,0.05s-0.22,0.02-0.34,0.02
			c-0.03,0-0.05,0-0.05-0.01c0,0,0-0.01,0.01-0.02S203.24,41.9,203.24,41.89z"/>
		<path d="M210.94,41.74c-0.03-0.09-0.06-0.18-0.09-0.26s-0.08-0.17-0.12-0.25c-0.14-0.27-0.31-0.48-0.52-0.63s-0.47-0.23-0.77-0.23
			c-0.26,0-0.46,0.08-0.62,0.25c-0.13,0.01-0.25,0.03-0.38,0.07s-0.21,0.08-0.27,0.11c-0.37,0.23-0.69,0.47-0.97,0.73
			s-0.52,0.53-0.72,0.8s-0.36,0.54-0.48,0.81s-0.21,0.52-0.27,0.76c-0.07,0.28-0.11,0.54-0.11,0.79c0,0.25,0.04,0.48,0.11,0.69
			s0.18,0.38,0.33,0.53s0.33,0.26,0.55,0.34s0.48,0.12,0.78,0.12c0.32,0,0.6-0.04,0.86-0.13s0.49-0.2,0.7-0.35
			c0.31-0.22,0.6-0.47,0.85-0.75s0.47-0.57,0.65-0.88s0.32-0.62,0.42-0.94s0.15-0.63,0.15-0.94c0-0.13-0.01-0.25-0.02-0.36
			S210.97,41.83,210.94,41.74z M209.93,42.75c-0.03,0.12-0.06,0.25-0.09,0.39c-0.05,0.22-0.15,0.46-0.28,0.72s-0.3,0.5-0.5,0.73
			s-0.43,0.42-0.68,0.57s-0.53,0.23-0.83,0.23c-0.16,0-0.3-0.02-0.41-0.07s-0.2-0.11-0.28-0.19s-0.13-0.18-0.16-0.29
			s-0.05-0.23-0.05-0.36c0-0.07,0-0.15,0.01-0.23s0.03-0.17,0.05-0.25c0.03-0.12,0.08-0.25,0.14-0.39s0.15-0.28,0.24-0.43
			s0.2-0.29,0.31-0.43s0.24-0.27,0.36-0.39s0.26-0.23,0.39-0.32s0.26-0.16,0.39-0.2c0.2-0.02,0.35-0.04,0.47-0.07
			s0.22-0.06,0.29-0.09s0.12-0.07,0.16-0.11s0.07-0.09,0.1-0.14c0.03,0.07,0.06,0.14,0.09,0.21s0.07,0.14,0.11,0.21
			c0.06,0.11,0.11,0.21,0.14,0.3s0.06,0.18,0.06,0.28S209.96,42.63,209.93,42.75z"/>
		<path d="M216.44,40.91c-0.08-0.06-0.16-0.1-0.24-0.14s-0.17-0.06-0.24-0.08c-0.07-0.02-0.13-0.04-0.2-0.05s-0.13-0.02-0.2-0.02
			c-0.17,0-0.33,0.03-0.48,0.09s-0.3,0.14-0.44,0.24s-0.27,0.2-0.39,0.32s-0.24,0.24-0.35,0.35c0-0.04,0-0.09,0.01-0.16
			s0.01-0.13,0.01-0.18c0-0.1-0.01-0.2-0.02-0.3s-0.04-0.18-0.08-0.25s-0.09-0.13-0.16-0.18s-0.16-0.07-0.27-0.07
			c-0.12,0-0.2,0.03-0.25,0.08s-0.1,0.15-0.14,0.3c-0.03,0.1-0.05,0.21-0.06,0.33s-0.02,0.24-0.02,0.36c0,0.04,0,0.07,0,0.1
			s0,0.06,0.01,0.1c-0.05,0.27-0.1,0.57-0.17,0.89s-0.13,0.65-0.21,0.99s-0.14,0.67-0.21,1s-0.13,0.63-0.18,0.9
			c-0.02,0.07-0.03,0.14-0.03,0.21c0,0.14,0.04,0.27,0.12,0.38s0.21,0.16,0.37,0.16c0.11,0,0.2-0.02,0.28-0.06s0.14-0.09,0.18-0.15
			c0.04-0.09,0.06-0.2,0.07-0.32s0.01-0.24,0.01-0.36v-0.15c0.09-0.39,0.19-0.76,0.28-1.12s0.18-0.69,0.26-1.01
			c0.1-0.13,0.21-0.28,0.34-0.45s0.27-0.32,0.43-0.47s0.32-0.27,0.5-0.37s0.37-0.15,0.57-0.15c0.02,0,0.04,0,0.06,0
			s0.04,0,0.06,0.01c0.01,0.01,0.03,0.04,0.05,0.07s0.04,0.08,0.07,0.12s0.05,0.09,0.08,0.13s0.06,0.08,0.08,0.1
			c0.06,0.05,0.14,0.1,0.24,0.13s0.18,0.05,0.24,0.05s0.13-0.02,0.18-0.06s0.1-0.08,0.14-0.14s0.07-0.12,0.1-0.19
			s0.04-0.13,0.04-0.19c0-0.15-0.04-0.3-0.13-0.45S216.57,41,216.44,40.91z"/>
		<path d="M227.84,40.53c-0.04,0-0.09,0.01-0.13,0.02s-0.09,0.03-0.13,0.05s-0.08,0.04-0.11,0.07s-0.05,0.05-0.06,0.08
			c-0.1,0.42-0.21,0.8-0.34,1.15s-0.27,0.67-0.44,0.96s-0.37,0.56-0.61,0.8s-0.52,0.46-0.85,0.67c-0.09,0.05-0.17,0.09-0.24,0.12
			s-0.14,0.04-0.2,0.04c-0.1,0-0.19-0.06-0.26-0.19s-0.11-0.29-0.11-0.5c0-0.05,0.01-0.12,0.02-0.22s0.04-0.22,0.07-0.39
			s0.08-0.37,0.14-0.61s0.13-0.54,0.23-0.89c0.06-0.11,0.11-0.22,0.14-0.33s0.05-0.18,0.05-0.21c0-0.09-0.02-0.19-0.05-0.3
			s-0.08-0.21-0.15-0.28c-0.05-0.05-0.11-0.08-0.19-0.09s-0.16-0.02-0.25-0.02c-0.06,0-0.12,0.01-0.18,0.04s-0.12,0.06-0.17,0.1
			s-0.1,0.09-0.13,0.15s-0.06,0.12-0.07,0.19c0,0.01-0.01,0.04-0.01,0.09s-0.01,0.1-0.01,0.16c-0.01,0.07-0.01,0.14-0.02,0.21
			c-0.07,0.29-0.13,0.55-0.18,0.78s-0.1,0.46-0.14,0.68s-0.07,0.42-0.09,0.62s-0.03,0.4-0.03,0.62c0,0.13,0.01,0.26,0.04,0.38
			s0.06,0.23,0.1,0.3c0.16,0.27,0.33,0.47,0.51,0.59s0.41,0.18,0.67,0.18c0.1,0,0.2-0.02,0.31-0.07s0.23-0.11,0.34-0.19
			s0.23-0.17,0.35-0.27s0.23-0.2,0.34-0.31s0.21-0.21,0.31-0.32s0.18-0.2,0.25-0.28c-0.1,0.41-0.23,0.77-0.39,1.08
			s-0.32,0.59-0.5,0.84s-0.37,0.46-0.56,0.64s-0.38,0.34-0.55,0.48s-0.35,0.25-0.51,0.33s-0.32,0.15-0.47,0.21s-0.28,0.09-0.41,0.12
			s-0.23,0.05-0.33,0.08c-0.03,0.01-0.06,0.03-0.09,0.05s-0.06,0.06-0.09,0.1s-0.05,0.09-0.07,0.14s-0.03,0.12-0.03,0.19
			c0,0.06,0.01,0.12,0.03,0.18s0.05,0.12,0.08,0.17s0.07,0.09,0.12,0.12s0.1,0.05,0.16,0.05c0.26,0,0.5-0.05,0.74-0.14
			s0.47-0.21,0.71-0.35c0.39-0.25,0.73-0.48,1.02-0.71s0.53-0.46,0.74-0.68s0.38-0.46,0.53-0.7s0.28-0.49,0.4-0.76
			s0.23-0.56,0.33-0.86s0.22-0.65,0.35-1.01l0.28-0.81c0.03-0.07,0.07-0.19,0.11-0.35s0.1-0.32,0.14-0.5s0.09-0.34,0.12-0.5
			s0.05-0.27,0.05-0.34c0-0.19-0.06-0.34-0.17-0.45S228.05,40.53,227.84,40.53z"/>
		<path d="M234.59,41.74c-0.03-0.09-0.06-0.18-0.09-0.26s-0.08-0.17-0.12-0.25c-0.14-0.27-0.31-0.48-0.52-0.63s-0.47-0.23-0.77-0.23
			c-0.26,0-0.46,0.08-0.62,0.25c-0.13,0.01-0.25,0.03-0.38,0.07s-0.21,0.08-0.27,0.11c-0.37,0.23-0.69,0.47-0.97,0.73
			s-0.52,0.53-0.72,0.8s-0.36,0.54-0.48,0.81s-0.21,0.52-0.27,0.76c-0.07,0.28-0.11,0.54-0.11,0.79c0,0.25,0.04,0.48,0.11,0.69
			s0.18,0.38,0.33,0.53s0.33,0.26,0.55,0.34s0.48,0.12,0.78,0.12c0.32,0,0.6-0.04,0.86-0.13s0.49-0.2,0.7-0.35
			c0.31-0.22,0.6-0.47,0.85-0.75s0.47-0.57,0.65-0.88s0.32-0.62,0.42-0.94s0.15-0.63,0.15-0.94c0-0.13-0.01-0.25-0.02-0.36
			S234.62,41.83,234.59,41.74z M233.58,42.75c-0.03,0.12-0.06,0.25-0.09,0.39c-0.05,0.22-0.15,0.46-0.28,0.72s-0.3,0.5-0.5,0.73
			s-0.43,0.42-0.68,0.57s-0.53,0.23-0.83,0.23c-0.16,0-0.3-0.02-0.41-0.07s-0.2-0.11-0.28-0.19s-0.13-0.18-0.16-0.29
			s-0.05-0.23-0.05-0.36c0-0.07,0-0.15,0.01-0.23s0.03-0.17,0.05-0.25c0.03-0.12,0.08-0.25,0.14-0.39s0.15-0.28,0.24-0.43
			s0.2-0.29,0.31-0.43s0.24-0.27,0.36-0.39s0.26-0.23,0.39-0.32s0.26-0.16,0.39-0.2c0.2-0.02,0.35-0.04,0.47-0.07
			s0.22-0.06,0.29-0.09s0.12-0.07,0.16-0.11s0.07-0.09,0.1-0.14c0.03,0.07,0.06,0.14,0.09,0.21s0.07,0.14,0.11,0.21
			c0.06,0.11,0.11,0.21,0.14,0.3s0.06,0.18,0.06,0.28S233.6,42.63,233.58,42.75z"/>
		<path d="M241.08,40.37c-0.05-0.05-0.12-0.09-0.2-0.11s-0.17-0.03-0.26-0.03c-0.15,0-0.26,0.03-0.33,0.08s-0.11,0.16-0.14,0.31
			l-0.15,0.78c-0.02,0.11-0.06,0.26-0.1,0.45s-0.09,0.39-0.16,0.61s-0.13,0.43-0.21,0.64s-0.17,0.4-0.26,0.57l-0.15,0.26
			c-0.08,0.13-0.18,0.28-0.3,0.44s-0.26,0.32-0.41,0.47s-0.31,0.27-0.48,0.37s-0.33,0.15-0.5,0.15c-0.09,0-0.17-0.03-0.24-0.09
			s-0.12-0.13-0.16-0.22s-0.08-0.18-0.1-0.28s-0.03-0.19-0.03-0.28s0.02-0.2,0.06-0.36s0.1-0.37,0.18-0.62s0.17-0.56,0.28-0.92
			s0.23-0.79,0.36-1.27c0.02-0.07,0.04-0.15,0.04-0.24c0-0.11-0.02-0.2-0.07-0.28s-0.12-0.12-0.22-0.12
			c-0.06-0.01-0.12-0.02-0.18-0.04c-0.05-0.01-0.11-0.02-0.17-0.03s-0.11-0.01-0.15-0.01c-0.02,0-0.04,0.01-0.06,0.02
			s-0.06,0.03-0.09,0.06s-0.06,0.06-0.09,0.11s-0.05,0.1-0.07,0.16c-0.02,0.09-0.05,0.19-0.08,0.31s-0.07,0.26-0.11,0.43
			s-0.1,0.36-0.16,0.59s-0.13,0.48-0.2,0.77c-0.02,0.09-0.05,0.2-0.09,0.32s-0.07,0.25-0.1,0.38s-0.06,0.27-0.08,0.42
			s-0.04,0.29-0.04,0.43c0,0.26,0.04,0.51,0.13,0.76s0.24,0.47,0.46,0.67c0.05,0.04,0.11,0.09,0.19,0.14s0.16,0.09,0.25,0.13
			s0.17,0.07,0.25,0.1s0.15,0.04,0.2,0.04c0.25,0,0.49-0.06,0.71-0.18s0.42-0.27,0.6-0.44s0.35-0.37,0.5-0.57s0.29-0.39,0.42-0.55
			l0.05-0.02l0.06,1.11c0,0.05,0.01,0.11,0.02,0.16s0.04,0.1,0.07,0.14s0.09,0.08,0.16,0.1s0.16,0.04,0.27,0.04
			c0.16,0,0.28-0.04,0.35-0.11s0.12-0.19,0.17-0.34c0.01-0.04,0.02-0.1,0.03-0.18s0.01-0.17,0.01-0.27c0-0.22-0.01-0.43-0.02-0.63
			s-0.02-0.4-0.02-0.6c0-0.12,0.01-0.25,0.03-0.4s0.04-0.3,0.07-0.46s0.06-0.32,0.1-0.49s0.07-0.32,0.11-0.46
			c0.06-0.25,0.12-0.49,0.17-0.74s0.08-0.45,0.08-0.62c0-0.14-0.01-0.26-0.04-0.35S241.13,40.42,241.08,40.37z"/>
		<path d="M246.74,40.91c-0.08-0.06-0.16-0.1-0.24-0.14s-0.17-0.06-0.24-0.08c-0.07-0.02-0.13-0.04-0.2-0.05s-0.13-0.02-0.2-0.02
			c-0.17,0-0.33,0.03-0.48,0.09s-0.3,0.14-0.44,0.24s-0.27,0.2-0.39,0.32s-0.24,0.24-0.35,0.35c0-0.04,0-0.09,0.01-0.16
			s0.01-0.13,0.01-0.18c0-0.1-0.01-0.2-0.02-0.3s-0.04-0.18-0.08-0.25s-0.09-0.13-0.16-0.18s-0.16-0.07-0.27-0.07
			c-0.12,0-0.2,0.03-0.25,0.08s-0.1,0.15-0.14,0.3c-0.03,0.1-0.05,0.21-0.06,0.33s-0.02,0.24-0.02,0.36c0,0.04,0,0.07,0,0.1
			s0,0.06,0.01,0.1c-0.05,0.27-0.1,0.57-0.17,0.89s-0.13,0.65-0.21,0.99s-0.14,0.67-0.21,1s-0.13,0.63-0.18,0.9
			c-0.02,0.07-0.03,0.14-0.03,0.21c0,0.14,0.04,0.27,0.12,0.38s0.21,0.16,0.37,0.16c0.11,0,0.2-0.02,0.28-0.06s0.14-0.09,0.18-0.15
			c0.04-0.09,0.06-0.2,0.07-0.32s0.01-0.24,0.01-0.36v-0.15c0.09-0.39,0.19-0.76,0.28-1.12s0.18-0.69,0.26-1.01
			c0.1-0.13,0.21-0.28,0.34-0.45s0.27-0.32,0.43-0.47s0.32-0.27,0.5-0.37s0.37-0.15,0.57-0.15c0.02,0,0.04,0,0.06,0
			s0.04,0,0.06,0.01c0.01,0.01,0.03,0.04,0.05,0.07s0.04,0.08,0.07,0.12s0.05,0.09,0.08,0.13s0.06,0.08,0.08,0.1
			c0.06,0.05,0.14,0.1,0.24,0.13s0.18,0.05,0.24,0.05s0.13-0.02,0.18-0.06s0.1-0.08,0.14-0.14s0.07-0.12,0.1-0.19
			s0.04-0.13,0.04-0.19c0-0.15-0.04-0.3-0.13-0.45S246.86,41,246.74,40.91z"/>
		<path d="M257.92,44.42c-0.1,0-0.21,0.03-0.34,0.1s-0.26,0.14-0.4,0.24c-0.11,0.07-0.23,0.15-0.36,0.23s-0.27,0.15-0.42,0.21
			s-0.31,0.12-0.48,0.16s-0.34,0.06-0.53,0.06c-0.32,0-0.56-0.06-0.74-0.19s-0.27-0.3-0.27-0.53c0-0.1,0.01-0.21,0.04-0.31
			s0.06-0.2,0.09-0.27c0.16-0.02,0.35-0.04,0.57-0.07s0.45-0.07,0.68-0.13s0.47-0.12,0.71-0.21s0.46-0.18,0.66-0.31
			s0.38-0.27,0.52-0.43s0.25-0.36,0.3-0.57c0.04-0.12,0.05-0.25,0.05-0.38c0-0.16-0.03-0.3-0.08-0.44s-0.14-0.25-0.25-0.35
			s-0.25-0.17-0.42-0.23s-0.37-0.08-0.59-0.08c-0.27,0-0.52,0.04-0.75,0.13s-0.46,0.21-0.66,0.35s-0.39,0.3-0.56,0.47
			s-0.32,0.35-0.45,0.52s-0.24,0.33-0.33,0.48s-0.16,0.26-0.2,0.35c-0.15,0.04-0.27,0.12-0.36,0.23s-0.13,0.26-0.13,0.43
			c0,0.09,0.02,0.15,0.07,0.2s0.09,0.07,0.14,0.08c-0.05,0.23-0.08,0.43-0.08,0.62c0,0.23,0.03,0.42,0.1,0.58s0.15,0.29,0.25,0.4
			s0.22,0.2,0.35,0.26s0.27,0.12,0.4,0.15s0.27,0.06,0.4,0.07s0.24,0.02,0.33,0.02c0.48,0,0.94-0.07,1.37-0.21s0.84-0.37,1.25-0.69
			c0.09-0.07,0.16-0.16,0.22-0.26s0.1-0.2,0.12-0.3c0-0.02,0.01-0.04,0.01-0.07s0-0.06,0-0.09c0-0.05-0.01-0.11-0.04-0.16
			S258.02,44.42,257.92,44.42z M255.13,42.75c0.11-0.15,0.24-0.3,0.39-0.43s0.3-0.25,0.47-0.34s0.33-0.13,0.51-0.13
			c0.11,0,0.2,0.03,0.28,0.08s0.12,0.13,0.12,0.24c0,0.02,0,0.04,0,0.05s0,0.03-0.01,0.05c-0.03,0.11-0.1,0.22-0.21,0.32
			s-0.25,0.19-0.42,0.27s-0.38,0.15-0.61,0.2s-0.49,0.09-0.77,0.11C254.93,43.04,255.01,42.9,255.13,42.75z"/>
		<path d="M264.43,40.3c-0.09,0-0.16,0.01-0.23,0.04s-0.13,0.06-0.18,0.1s-0.1,0.09-0.14,0.14s-0.07,0.1-0.1,0.15
			c-0.09,0.23-0.18,0.44-0.27,0.63s-0.18,0.37-0.27,0.54s-0.19,0.33-0.28,0.49s-0.2,0.31-0.31,0.47s-0.23,0.32-0.35,0.5
			s-0.26,0.36-0.4,0.56c-0.29,0.42-0.5,0.69-0.62,0.81c-0.04-0.19-0.08-0.4-0.12-0.65s-0.09-0.5-0.13-0.76s-0.08-0.53-0.12-0.79
			s-0.06-0.51-0.08-0.74c-0.01-0.18-0.03-0.35-0.05-0.52s-0.06-0.32-0.11-0.44s-0.12-0.23-0.21-0.3s-0.22-0.11-0.37-0.11
			c-0.08,0-0.15,0.02-0.21,0.07s-0.12,0.11-0.16,0.18s-0.08,0.16-0.1,0.26s-0.04,0.2-0.04,0.31c0,0.1,0.01,0.19,0.02,0.29
			s0.03,0.19,0.05,0.29s0.04,0.2,0.06,0.31s0.04,0.23,0.06,0.35c0.03,0.18,0.06,0.37,0.1,0.58s0.08,0.43,0.13,0.65
			s0.09,0.44,0.14,0.67s0.1,0.43,0.14,0.62s0.08,0.36,0.12,0.52s0.06,0.27,0.08,0.35c0,0.05,0.01,0.11,0.04,0.17s0.06,0.12,0.1,0.17
			s0.1,0.1,0.16,0.13s0.13,0.05,0.22,0.05c0.02,0,0.03,0,0.04,0s0.03,0,0.05-0.01c0.04-0.01,0.08-0.02,0.13-0.05s0.1-0.06,0.16-0.11
			s0.11-0.11,0.17-0.19s0.12-0.18,0.17-0.29l2.75-3.88c0.14-0.2,0.24-0.39,0.31-0.56s0.1-0.35,0.1-0.54c0-0.14-0.03-0.25-0.1-0.34
			S264.61,40.3,264.43,40.3z"/>
		<path d="M269.72,44.42c-0.1,0-0.21,0.03-0.34,0.1s-0.26,0.14-0.4,0.24c-0.11,0.07-0.23,0.15-0.36,0.23s-0.27,0.15-0.42,0.21
			s-0.31,0.12-0.48,0.16s-0.34,0.06-0.53,0.06c-0.32,0-0.56-0.06-0.74-0.19s-0.27-0.3-0.27-0.53c0-0.1,0.01-0.21,0.04-0.31
			s0.06-0.2,0.09-0.27c0.16-0.02,0.35-0.04,0.57-0.07s0.45-0.07,0.68-0.13s0.47-0.12,0.71-0.21s0.46-0.18,0.66-0.31
			s0.38-0.27,0.52-0.43s0.25-0.36,0.3-0.57c0.04-0.12,0.05-0.25,0.05-0.38c0-0.16-0.03-0.3-0.08-0.44s-0.14-0.25-0.25-0.35
			s-0.25-0.17-0.42-0.23s-0.37-0.08-0.59-0.08c-0.27,0-0.52,0.04-0.75,0.13s-0.46,0.21-0.66,0.35s-0.39,0.3-0.56,0.47
			s-0.32,0.35-0.45,0.52s-0.24,0.33-0.33,0.48s-0.16,0.26-0.2,0.35c-0.15,0.04-0.27,0.12-0.36,0.23s-0.13,0.26-0.13,0.43
			c0,0.09,0.02,0.15,0.07,0.2s0.09,0.07,0.14,0.08c-0.05,0.23-0.08,0.43-0.08,0.62c0,0.23,0.03,0.42,0.1,0.58s0.15,0.29,0.25,0.4
			s0.22,0.2,0.35,0.26s0.27,0.12,0.4,0.15s0.27,0.06,0.4,0.07s0.24,0.02,0.33,0.02c0.48,0,0.94-0.07,1.37-0.21s0.84-0.37,1.25-0.69
			c0.09-0.07,0.16-0.16,0.22-0.26s0.1-0.2,0.12-0.3c0-0.02,0.01-0.04,0.01-0.07s0-0.06,0-0.09c0-0.05-0.01-0.11-0.04-0.16
			S269.82,44.42,269.72,44.42z M266.93,42.75c0.11-0.15,0.24-0.3,0.39-0.43s0.3-0.25,0.47-0.34s0.33-0.13,0.51-0.13
			c0.11,0,0.2,0.03,0.28,0.08s0.12,0.13,0.12,0.24c0,0.02,0,0.04,0,0.05s0,0.03-0.01,0.05c-0.03,0.11-0.1,0.22-0.21,0.32
			s-0.25,0.19-0.42,0.27s-0.38,0.15-0.61,0.2s-0.49,0.09-0.77,0.11C266.73,43.04,266.81,42.9,266.93,42.75z"/>
		<path d="M275.86,41.91c0.02-0.07,0.04-0.13,0.04-0.19c0-0.15-0.04-0.3-0.13-0.45s-0.2-0.27-0.33-0.37
			c-0.08-0.06-0.16-0.1-0.24-0.14s-0.17-0.06-0.24-0.08c-0.07-0.02-0.13-0.04-0.2-0.05s-0.13-0.02-0.2-0.02
			c-0.17,0-0.33,0.03-0.48,0.09s-0.3,0.14-0.44,0.24s-0.27,0.2-0.39,0.32s-0.24,0.24-0.35,0.35c0-0.04,0-0.09,0.01-0.16
			s0.01-0.13,0.01-0.18c0-0.1-0.01-0.2-0.02-0.3s-0.04-0.18-0.08-0.25s-0.09-0.13-0.16-0.18s-0.16-0.07-0.27-0.07
			c-0.12,0-0.2,0.03-0.25,0.08s-0.1,0.15-0.14,0.3c-0.03,0.1-0.05,0.21-0.06,0.33s-0.02,0.24-0.02,0.36c0,0.04,0,0.07,0,0.1
			s0,0.06,0.01,0.1c-0.05,0.27-0.1,0.57-0.17,0.89s-0.13,0.65-0.21,0.99s-0.14,0.67-0.21,1s-0.13,0.63-0.18,0.9
			c-0.02,0.07-0.03,0.14-0.03,0.21c0,0.14,0.04,0.27,0.12,0.38s0.21,0.16,0.37,0.16c0.11,0,0.2-0.02,0.28-0.06s0.14-0.09,0.18-0.15
			c0.04-0.09,0.06-0.2,0.07-0.32s0.01-0.24,0.01-0.36v-0.15c0.09-0.39,0.19-0.76,0.28-1.12s0.18-0.69,0.26-1.01
			c0.1-0.13,0.21-0.28,0.34-0.45s0.27-0.32,0.43-0.47s0.32-0.27,0.5-0.37s0.37-0.15,0.57-0.15c0.02,0,0.04,0,0.06,0
			s0.04,0,0.06,0.01c0.01,0.01,0.03,0.04,0.05,0.07s0.04,0.08,0.07,0.12s0.05,0.09,0.08,0.13s0.06,0.08,0.08,0.1
			c0.06,0.05,0.14,0.1,0.24,0.13s0.18,0.05,0.24,0.05s0.13-0.02,0.18-0.06s0.1-0.08,0.14-0.14S275.83,41.98,275.86,41.91z"/>
		<path d="M280.98,40.53c-0.04,0-0.09,0.01-0.13,0.02s-0.09,0.03-0.13,0.05s-0.08,0.04-0.11,0.07s-0.05,0.05-0.06,0.08
			c-0.1,0.42-0.21,0.8-0.34,1.15s-0.27,0.67-0.44,0.96s-0.37,0.56-0.61,0.8s-0.52,0.46-0.85,0.67c-0.09,0.05-0.17,0.09-0.24,0.12
			s-0.14,0.04-0.2,0.04c-0.1,0-0.19-0.06-0.26-0.19s-0.11-0.29-0.11-0.5c0-0.05,0.01-0.12,0.02-0.22s0.04-0.22,0.07-0.39
			s0.08-0.37,0.14-0.61s0.13-0.54,0.23-0.89c0.06-0.11,0.11-0.22,0.14-0.33s0.05-0.18,0.05-0.21c0-0.09-0.02-0.19-0.05-0.3
			s-0.08-0.21-0.15-0.28c-0.05-0.05-0.11-0.08-0.19-0.09s-0.16-0.02-0.25-0.02c-0.06,0-0.12,0.01-0.18,0.04s-0.12,0.06-0.17,0.1
			s-0.1,0.09-0.13,0.15s-0.06,0.12-0.07,0.19c0,0.01-0.01,0.04-0.01,0.09s-0.01,0.1-0.01,0.16c-0.01,0.07-0.01,0.14-0.02,0.21
			c-0.07,0.29-0.13,0.55-0.18,0.78s-0.1,0.46-0.14,0.68s-0.07,0.42-0.09,0.62s-0.03,0.4-0.03,0.62c0,0.13,0.01,0.26,0.04,0.38
			s0.06,0.23,0.1,0.3c0.16,0.27,0.33,0.47,0.51,0.59s0.41,0.18,0.67,0.18c0.1,0,0.2-0.02,0.31-0.07s0.23-0.11,0.34-0.19
			s0.23-0.17,0.35-0.27s0.23-0.2,0.34-0.31s0.21-0.21,0.31-0.32s0.18-0.2,0.25-0.28c-0.1,0.41-0.23,0.77-0.39,1.08
			s-0.32,0.59-0.5,0.84s-0.37,0.46-0.56,0.64s-0.38,0.34-0.55,0.48s-0.35,0.25-0.51,0.33s-0.32,0.15-0.47,0.21s-0.28,0.09-0.41,0.12
			s-0.23,0.05-0.33,0.08c-0.03,0.01-0.06,0.03-0.09,0.05s-0.06,0.06-0.09,0.1s-0.05,0.09-0.07,0.14s-0.03,0.12-0.03,0.19
			c0,0.06,0.01,0.12,0.03,0.18s0.05,0.12,0.08,0.17s0.07,0.09,0.12,0.12s0.1,0.05,0.16,0.05c0.26,0,0.5-0.05,0.74-0.14
			s0.47-0.21,0.71-0.35c0.39-0.25,0.73-0.48,1.02-0.71s0.53-0.46,0.74-0.68s0.38-0.46,0.53-0.7s0.28-0.49,0.4-0.76
			s0.23-0.56,0.33-0.86s0.22-0.65,0.35-1.01l0.28-0.81c0.03-0.07,0.07-0.19,0.11-0.35s0.1-0.32,0.14-0.5s0.09-0.34,0.12-0.5
			s0.05-0.27,0.05-0.34c0-0.19-0.06-0.34-0.17-0.45S281.19,40.53,280.98,40.53z"/>
		<path d="M294.38,37.05c-0.06-0.04-0.13-0.07-0.2-0.08s-0.15-0.02-0.23-0.02c-0.11,0-0.2,0.04-0.28,0.11s-0.14,0.16-0.18,0.26
			c-0.25,1.07-0.45,1.9-0.62,2.5s-0.27,0.96-0.31,1.1c-0.09-0.04-0.18-0.07-0.28-0.09s-0.21-0.03-0.34-0.03
			c-0.18,0-0.35,0.02-0.54,0.07s-0.36,0.11-0.54,0.2s-0.36,0.18-0.53,0.29s-0.34,0.23-0.5,0.35c-0.23,0.18-0.43,0.37-0.6,0.57
			s-0.32,0.4-0.45,0.61s-0.23,0.42-0.31,0.63s-0.15,0.42-0.2,0.63c-0.03,0.11-0.05,0.21-0.06,0.3s-0.01,0.18-0.01,0.27
			c0,0.25,0.04,0.47,0.12,0.65s0.18,0.34,0.31,0.46s0.28,0.21,0.45,0.27s0.34,0.09,0.51,0.09c0.14,0,0.29-0.02,0.43-0.05
			s0.28-0.07,0.41-0.12s0.25-0.1,0.37-0.16s0.21-0.11,0.3-0.16c0.04-0.02,0.09-0.05,0.16-0.1s0.15-0.09,0.24-0.15
			s0.17-0.1,0.25-0.16s0.15-0.09,0.19-0.12c0.03,0.06,0.04,0.12,0.05,0.18s0.01,0.13,0.01,0.19s0.01,0.12,0.01,0.17
			s0.02,0.1,0.06,0.14s0.08,0.07,0.14,0.1s0.15,0.04,0.26,0.04c0.1,0,0.18-0.01,0.24-0.03s0.12-0.05,0.16-0.09s0.08-0.09,0.1-0.16
			s0.05-0.14,0.07-0.24c0.05-0.21,0.08-0.43,0.08-0.65c0-0.18,0.01-0.39,0.02-0.63s0.04-0.49,0.06-0.74s0.06-0.49,0.09-0.71
			s0.06-0.4,0.1-0.54l1.18-4.71c0-0.11-0.02-0.21-0.05-0.28S294.44,37.09,294.38,37.05z M292.33,42.26
			c-0.02,0.13-0.04,0.25-0.06,0.38s-0.05,0.25-0.08,0.38s-0.06,0.27-0.1,0.43c-0.05,0.18-0.11,0.33-0.18,0.47s-0.17,0.26-0.27,0.37
			s-0.22,0.21-0.34,0.3s-0.26,0.19-0.41,0.29c-0.05,0.04-0.12,0.08-0.2,0.12s-0.16,0.09-0.25,0.13s-0.18,0.08-0.27,0.1
			s-0.17,0.04-0.25,0.04c-0.14,0-0.25-0.02-0.34-0.07s-0.16-0.1-0.21-0.18s-0.09-0.16-0.11-0.26s-0.03-0.21-0.03-0.32
			c0-0.11,0.02-0.22,0.05-0.34c0.05-0.23,0.14-0.45,0.26-0.66s0.26-0.4,0.42-0.57s0.34-0.33,0.53-0.47s0.38-0.26,0.58-0.36
			s0.39-0.17,0.58-0.23s0.36-0.08,0.52-0.08c0.07,0,0.12,0.01,0.15,0.03s0.06,0.04,0.08,0.07
			C292.37,41.99,292.35,42.13,292.33,42.26z"/>
		<path d="M296.78,41.03c-0.05-0.03-0.1-0.05-0.17-0.06s-0.13-0.02-0.19-0.02c-0.09,0-0.17,0.01-0.23,0.04s-0.12,0.06-0.16,0.1
			s-0.08,0.07-0.1,0.11s-0.04,0.06-0.04,0.08c-0.08,0.33-0.17,0.67-0.26,1.03s-0.19,0.7-0.28,1.03s-0.18,0.65-0.26,0.96
			s-0.15,0.56-0.21,0.79l-0.17,0.69c-0.01,0.02-0.01,0.04-0.01,0.05s0,0.03,0,0.05c0,0.07,0.01,0.14,0.04,0.21s0.07,0.14,0.12,0.21
			s0.12,0.11,0.2,0.16s0.17,0.06,0.27,0.06c0.05,0,0.1-0.01,0.14-0.04s0.07-0.05,0.1-0.09s0.05-0.07,0.06-0.11s0.03-0.06,0.04-0.09
			c0.18-0.7,0.36-1.4,0.55-2.1s0.38-1.4,0.56-2.09l0.16-0.62c0-0.01,0.01-0.02,0.01-0.04s0-0.03,0-0.04c0-0.06-0.01-0.11-0.04-0.16
			S296.83,41.06,296.78,41.03z"/>
		<path d="M297.53,38.52c-0.04-0.05-0.07-0.09-0.11-0.13c-0.03-0.03-0.07-0.06-0.11-0.09s-0.08-0.04-0.12-0.04s-0.1,0.01-0.19,0.04
			s-0.17,0.06-0.23,0.1c-0.13,0.09-0.22,0.2-0.27,0.32s-0.09,0.22-0.11,0.3c-0.01,0.03-0.01,0.06-0.02,0.1s-0.01,0.07-0.01,0.11
			c0,0.02,0,0.05,0.01,0.08s0.03,0.08,0.07,0.14c0.07,0.1,0.14,0.17,0.18,0.2s0.12,0.05,0.21,0.05c0.07,0,0.15-0.01,0.25-0.04
			s0.18-0.07,0.27-0.11s0.16-0.11,0.23-0.18s0.11-0.14,0.13-0.23c0.01-0.03,0.02-0.07,0.03-0.12s0.02-0.11,0.02-0.17
			c0-0.09-0.01-0.16-0.04-0.22S297.63,38.52,297.53,38.52z"/>
		<path d="M302.49,41.21c-0.07-0.12-0.15-0.21-0.23-0.28s-0.18-0.13-0.28-0.16s-0.21-0.06-0.32-0.07s-0.23-0.02-0.35-0.02
			c-0.29,0-0.56,0.05-0.82,0.14s-0.52,0.25-0.77,0.46c-0.21,0.17-0.41,0.35-0.6,0.55s-0.37,0.41-0.53,0.62s-0.3,0.45-0.42,0.69
			s-0.21,0.49-0.28,0.75c-0.02,0.09-0.04,0.18-0.06,0.29s-0.04,0.21-0.04,0.3c0,0.15,0.04,0.29,0.12,0.42s0.17,0.25,0.29,0.35
			s0.23,0.18,0.36,0.25s0.24,0.09,0.34,0.09c0.17,0,0.34-0.03,0.52-0.1s0.34-0.15,0.51-0.25s0.33-0.22,0.49-0.35
			s0.31-0.26,0.46-0.39c-0.03,0.1-0.05,0.19-0.07,0.27s-0.04,0.16-0.06,0.23c-0.06,0.22-0.12,0.43-0.18,0.64s-0.14,0.42-0.24,0.62
			s-0.21,0.4-0.35,0.58s-0.31,0.37-0.51,0.54c-0.07,0.04-0.15,0.08-0.25,0.11s-0.21,0.06-0.33,0.08c-0.18,0.04-0.33,0.08-0.45,0.11
			s-0.2,0.08-0.27,0.14s-0.12,0.12-0.15,0.2s-0.07,0.18-0.1,0.31c-0.01,0.05-0.02,0.09-0.02,0.13c0,0.06,0.01,0.12,0.04,0.16
			s0.05,0.08,0.08,0.11s0.07,0.05,0.11,0.06s0.07,0.02,0.11,0.02c0.4,0,0.76-0.06,1.08-0.18s0.61-0.29,0.86-0.5s0.48-0.45,0.67-0.73
			s0.36-0.57,0.5-0.88s0.26-0.63,0.36-0.96s0.18-0.65,0.25-0.96c0.04-0.18,0.08-0.37,0.12-0.59s0.09-0.45,0.13-0.67
			s0.08-0.46,0.13-0.68s0.08-0.43,0.11-0.61s0.05-0.33,0.07-0.46s0.03-0.2,0.03-0.23c0-0.03,0-0.06-0.01-0.1
			S302.5,41.23,302.49,41.21z M301.35,42.2c-0.05,0.13-0.11,0.25-0.17,0.38s-0.13,0.25-0.19,0.35s-0.12,0.2-0.16,0.26
			c-0.09,0.15-0.21,0.3-0.37,0.47s-0.32,0.32-0.49,0.46s-0.35,0.26-0.52,0.35s-0.33,0.14-0.45,0.14c-0.08,0-0.14-0.03-0.17-0.09
			s-0.05-0.14-0.05-0.22c0-0.05,0-0.09,0.01-0.14s0.02-0.1,0.03-0.14c0.04-0.17,0.1-0.32,0.17-0.45s0.14-0.26,0.23-0.39
			c0.05-0.09,0.13-0.19,0.23-0.31s0.21-0.24,0.33-0.37s0.25-0.25,0.39-0.38s0.27-0.23,0.41-0.33s0.26-0.18,0.38-0.24
			s0.23-0.09,0.32-0.09h0.05c0.02,0.1,0.04,0.18,0.07,0.24s0.04,0.12,0.04,0.18C301.43,41.96,301.4,42.08,301.35,42.2z"/>
		<path d="M305.49,41.03c-0.05-0.03-0.1-0.05-0.17-0.06s-0.13-0.02-0.19-0.02c-0.09,0-0.17,0.01-0.23,0.04s-0.12,0.06-0.16,0.1
			s-0.08,0.07-0.1,0.11s-0.04,0.06-0.04,0.08c-0.08,0.33-0.17,0.67-0.26,1.03s-0.19,0.7-0.28,1.03s-0.18,0.65-0.26,0.96
			s-0.15,0.56-0.21,0.79l-0.17,0.69c-0.01,0.02-0.01,0.04-0.01,0.05s0,0.03,0,0.05c0,0.07,0.01,0.14,0.04,0.21s0.07,0.14,0.12,0.21
			s0.12,0.11,0.2,0.16s0.17,0.06,0.27,0.06c0.05,0,0.1-0.01,0.14-0.04s0.07-0.05,0.1-0.09s0.05-0.07,0.06-0.11s0.03-0.06,0.04-0.09
			c0.18-0.7,0.36-1.4,0.55-2.1s0.38-1.4,0.56-2.09l0.16-0.62c0-0.01,0.01-0.02,0.01-0.04s0-0.03,0-0.04c0-0.06-0.01-0.11-0.04-0.16
			S305.54,41.06,305.49,41.03z"/>
		<path d="M306.24,38.52c-0.04-0.05-0.07-0.09-0.11-0.13c-0.03-0.03-0.07-0.06-0.11-0.09s-0.08-0.04-0.12-0.04s-0.1,0.01-0.19,0.04
			s-0.17,0.06-0.23,0.1c-0.13,0.09-0.22,0.2-0.27,0.32s-0.09,0.22-0.11,0.3c-0.01,0.03-0.01,0.06-0.02,0.1s-0.01,0.07-0.01,0.11
			c0,0.02,0,0.05,0.01,0.08s0.03,0.08,0.07,0.14c0.07,0.1,0.14,0.17,0.18,0.2s0.12,0.05,0.21,0.05c0.07,0,0.15-0.01,0.25-0.04
			s0.18-0.07,0.27-0.11s0.16-0.11,0.23-0.18s0.11-0.14,0.13-0.23c0.01-0.03,0.02-0.07,0.03-0.12s0.02-0.11,0.02-0.17
			c0-0.09-0.01-0.16-0.04-0.22S306.34,38.52,306.24,38.52z"/>
		<path d="M311.85,40.7c-0.05-0.02-0.11-0.04-0.17-0.05s-0.13-0.01-0.19-0.01c-0.04,0-0.1,0.01-0.16,0.02s-0.14,0.03-0.24,0.05
			s-0.21,0.05-0.34,0.08s-0.29,0.06-0.47,0.1c-0.16,0.03-0.33,0.06-0.49,0.09s-0.35,0.06-0.56,0.1l0.43-1.64
			c0.02-0.08,0.03-0.17,0.03-0.26c0-0.09-0.01-0.18-0.04-0.27s-0.06-0.17-0.11-0.24s-0.11-0.13-0.18-0.17s-0.16-0.06-0.27-0.06
			c-0.12,0-0.21,0.03-0.28,0.1s-0.11,0.14-0.13,0.21c-0.03,0.09-0.05,0.17-0.06,0.22s-0.01,0.09-0.01,0.12v0.06
			c0,0.08,0,0.15,0.01,0.19s0.01,0.1,0.01,0.15c0,0.04-0.01,0.1-0.03,0.17s-0.04,0.17-0.07,0.28s-0.07,0.26-0.11,0.42
			s-0.09,0.36-0.14,0.59c-0.02,0.06-0.04,0.13-0.06,0.19s-0.08,0.1-0.15,0.1h-0.79c-0.06,0-0.11,0.02-0.16,0.06
			s-0.08,0.08-0.11,0.13s-0.05,0.11-0.07,0.16s-0.02,0.1-0.02,0.13c0,0.09,0.03,0.17,0.08,0.24s0.13,0.13,0.21,0.17
			s0.18,0.08,0.29,0.11s0.21,0.04,0.31,0.05c-0.08,0.32-0.16,0.66-0.23,1.02s-0.11,0.69-0.11,1.02c0,0.24,0.04,0.47,0.11,0.68
			s0.17,0.4,0.31,0.55s0.3,0.28,0.5,0.38s0.42,0.14,0.68,0.14c0.16,0,0.33-0.02,0.51-0.05s0.34-0.1,0.49-0.19
			c0.09-0.05,0.18-0.12,0.28-0.18s0.19-0.14,0.28-0.22s0.17-0.16,0.25-0.24s0.14-0.17,0.18-0.25c0.14-0.25,0.27-0.49,0.4-0.74
			s0.23-0.49,0.29-0.73c0-0.02,0.01-0.04,0.01-0.07c0-0.04-0.01-0.08-0.03-0.11s-0.05-0.06-0.08-0.08s-0.06-0.03-0.1-0.04
			s-0.06-0.01-0.08-0.01c-0.07,0-0.13,0.04-0.18,0.11c-0.14,0.19-0.29,0.38-0.45,0.59s-0.33,0.4-0.52,0.57s-0.37,0.32-0.57,0.43
			s-0.4,0.17-0.61,0.17c-0.12,0-0.22-0.02-0.3-0.06s-0.14-0.1-0.19-0.17s-0.08-0.15-0.1-0.25s-0.03-0.2-0.03-0.3
			c0-0.08,0.01-0.2,0.03-0.34s0.04-0.31,0.08-0.5s0.08-0.39,0.14-0.6s0.12-0.43,0.19-0.66c0.04,0,0.08,0,0.14-0.01
			s0.13-0.02,0.22-0.04s0.2-0.04,0.33-0.07s0.28-0.07,0.46-0.12c0.12-0.03,0.25-0.06,0.38-0.09s0.25-0.06,0.37-0.09
			s0.23-0.05,0.33-0.08s0.18-0.04,0.24-0.05c0.07-0.02,0.15-0.04,0.22-0.07s0.14-0.08,0.2-0.13s0.11-0.12,0.14-0.19
			s0.06-0.16,0.06-0.25c0-0.07-0.02-0.13-0.05-0.17S311.9,40.72,311.85,40.7z"/>
		<path d="M317.75,40.87c-0.05-0.05-0.11-0.09-0.19-0.13s-0.18-0.05-0.29-0.05c-0.06,0-0.12,0-0.18,0.01s-0.13,0.02-0.22,0.04
			c-0.09-0.01-0.19-0.02-0.3-0.04s-0.21-0.02-0.3-0.02c-0.2,0-0.41,0.02-0.62,0.06s-0.41,0.13-0.62,0.28
			c-0.54,0.37-0.98,0.82-1.34,1.34s-0.62,1.1-0.76,1.71c-0.04,0.14-0.06,0.26-0.08,0.36s-0.03,0.21-0.03,0.3
			c0,0.22,0.05,0.41,0.14,0.57s0.24,0.33,0.45,0.49c0.07,0.06,0.16,0.11,0.27,0.14s0.22,0.05,0.33,0.05c0.14,0,0.3-0.04,0.47-0.12
			s0.33-0.18,0.5-0.3s0.33-0.24,0.49-0.37s0.3-0.24,0.43-0.33c0,0.23-0.01,0.43-0.04,0.59s-0.04,0.29-0.04,0.41
			c0,0.05,0.01,0.1,0.02,0.14s0.04,0.08,0.08,0.11s0.09,0.05,0.17,0.07s0.17,0.02,0.29,0.02c0.09,0,0.17-0.02,0.23-0.05
			s0.11-0.08,0.15-0.13s0.07-0.1,0.08-0.15s0.03-0.1,0.04-0.13c0.04-0.12,0.06-0.25,0.07-0.39s0.03-0.29,0.04-0.46l0.77-3.09
			c0.03-0.09,0.06-0.19,0.09-0.28s0.05-0.19,0.05-0.29c0-0.07-0.01-0.15-0.03-0.21S317.8,40.92,317.75,40.87z M316.65,42.15
			c-0.02,0.15-0.05,0.28-0.08,0.39c-0.05,0.2-0.14,0.39-0.26,0.59s-0.26,0.39-0.41,0.58s-0.32,0.37-0.49,0.54s-0.34,0.32-0.51,0.46
			c-0.13,0.1-0.26,0.19-0.4,0.26s-0.3,0.11-0.46,0.11c-0.11,0-0.17-0.04-0.21-0.13s-0.05-0.18-0.05-0.28c0-0.1,0.01-0.2,0.03-0.3
			s0.03-0.18,0.05-0.23c0.05-0.2,0.12-0.4,0.22-0.6s0.21-0.4,0.34-0.6s0.28-0.38,0.44-0.54s0.33-0.32,0.51-0.44s0.37-0.22,0.56-0.3
			s0.39-0.11,0.58-0.11c0.07,0,0.11,0.02,0.13,0.07s0.04,0.1,0.04,0.15C316.69,41.87,316.67,42.01,316.65,42.15z"/>
		<path d="M321.53,37.35c-0.07-0.04-0.14-0.07-0.22-0.1s-0.15-0.04-0.21-0.04c-0.11,0-0.21,0.04-0.28,0.13s-0.13,0.2-0.17,0.33
			s-0.07,0.28-0.09,0.43s-0.04,0.3-0.05,0.43l-1.51,6c-0.02,0.07-0.04,0.16-0.06,0.26s-0.04,0.2-0.06,0.3s-0.03,0.2-0.04,0.29
			s-0.02,0.17-0.02,0.23c0,0.07,0.01,0.15,0.04,0.23s0.06,0.16,0.11,0.23s0.12,0.13,0.19,0.17s0.17,0.07,0.28,0.07
			c0.12,0,0.22-0.04,0.3-0.12s0.14-0.18,0.18-0.3s0.07-0.25,0.09-0.39s0.02-0.27,0.02-0.38v-0.14c0.02-0.14,0.05-0.31,0.09-0.52
			s0.09-0.44,0.15-0.67l1.46-5.87c0.01-0.04,0.02-0.08,0.03-0.12s0.02-0.08,0.02-0.11c0-0.07-0.02-0.13-0.07-0.19
			S321.6,37.39,321.53,37.35z"/>
		<path d="M333.72,37.05c-0.06-0.04-0.13-0.07-0.2-0.08s-0.15-0.02-0.23-0.02c-0.11,0-0.2,0.04-0.28,0.11s-0.14,0.16-0.18,0.26
			c-0.25,1.07-0.45,1.9-0.62,2.5s-0.27,0.96-0.31,1.1c-0.09-0.04-0.18-0.07-0.28-0.09s-0.21-0.03-0.34-0.03
			c-0.18,0-0.35,0.02-0.54,0.07s-0.36,0.11-0.54,0.2s-0.36,0.18-0.53,0.29s-0.34,0.23-0.5,0.35c-0.23,0.18-0.43,0.37-0.6,0.57
			s-0.32,0.4-0.45,0.61s-0.23,0.42-0.31,0.63s-0.15,0.42-0.2,0.63c-0.03,0.11-0.05,0.21-0.06,0.3s-0.01,0.18-0.01,0.27
			c0,0.25,0.04,0.47,0.12,0.65s0.18,0.34,0.31,0.46s0.28,0.21,0.45,0.27s0.34,0.09,0.51,0.09c0.14,0,0.29-0.02,0.43-0.05
			s0.28-0.07,0.41-0.12s0.25-0.1,0.37-0.16s0.21-0.11,0.3-0.16c0.04-0.02,0.09-0.05,0.16-0.1s0.15-0.09,0.24-0.15
			s0.17-0.1,0.25-0.16s0.15-0.09,0.19-0.12c0.03,0.06,0.04,0.12,0.05,0.18s0.01,0.13,0.01,0.19s0.01,0.12,0.01,0.17
			s0.02,0.1,0.06,0.14s0.08,0.07,0.14,0.1s0.15,0.04,0.26,0.04c0.1,0,0.18-0.01,0.24-0.03s0.12-0.05,0.16-0.09s0.08-0.09,0.1-0.16
			s0.05-0.14,0.07-0.24c0.05-0.21,0.08-0.43,0.08-0.65c0-0.18,0.01-0.39,0.02-0.63s0.04-0.49,0.06-0.74s0.06-0.49,0.09-0.71
			s0.06-0.4,0.1-0.54l1.18-4.71c0-0.11-0.02-0.21-0.05-0.28S333.78,37.09,333.72,37.05z M331.67,42.26
			c-0.02,0.13-0.04,0.25-0.06,0.38s-0.05,0.25-0.08,0.38s-0.06,0.27-0.1,0.43c-0.05,0.18-0.11,0.33-0.18,0.47s-0.17,0.26-0.27,0.37
			s-0.22,0.21-0.34,0.3s-0.26,0.19-0.41,0.29c-0.05,0.04-0.12,0.08-0.2,0.12s-0.16,0.09-0.25,0.13s-0.18,0.08-0.27,0.1
			s-0.17,0.04-0.25,0.04c-0.14,0-0.25-0.02-0.34-0.07s-0.16-0.1-0.21-0.18s-0.09-0.16-0.11-0.26s-0.03-0.21-0.03-0.32
			c0-0.11,0.02-0.22,0.05-0.34c0.05-0.23,0.14-0.45,0.26-0.66s0.26-0.4,0.42-0.57s0.34-0.33,0.53-0.47s0.38-0.26,0.58-0.36
			s0.39-0.17,0.58-0.23s0.36-0.08,0.52-0.08c0.07,0,0.12,0.01,0.15,0.03s0.06,0.04,0.08,0.07
			C331.71,41.99,331.69,42.13,331.67,42.26z"/>
		<path d="M338.84,44.42c-0.1,0-0.21,0.03-0.34,0.1s-0.26,0.14-0.4,0.24c-0.11,0.07-0.23,0.15-0.36,0.23s-0.27,0.15-0.42,0.21
			s-0.31,0.12-0.48,0.16s-0.34,0.06-0.53,0.06c-0.32,0-0.56-0.06-0.74-0.19s-0.27-0.3-0.27-0.53c0-0.1,0.01-0.21,0.04-0.31
			s0.06-0.2,0.09-0.27c0.16-0.02,0.35-0.04,0.57-0.07s0.45-0.07,0.68-0.13s0.47-0.12,0.71-0.21s0.46-0.18,0.66-0.31
			s0.38-0.27,0.52-0.43s0.25-0.36,0.3-0.57c0.04-0.12,0.05-0.25,0.05-0.38c0-0.16-0.03-0.3-0.08-0.44s-0.14-0.25-0.25-0.35
			s-0.25-0.17-0.42-0.23s-0.37-0.08-0.59-0.08c-0.27,0-0.52,0.04-0.75,0.13s-0.46,0.21-0.66,0.35s-0.39,0.3-0.56,0.47
			s-0.32,0.35-0.45,0.52s-0.24,0.33-0.33,0.48s-0.16,0.26-0.2,0.35c-0.15,0.04-0.27,0.12-0.36,0.23s-0.13,0.26-0.13,0.43
			c0,0.09,0.02,0.15,0.07,0.2s0.09,0.07,0.14,0.08c-0.05,0.23-0.08,0.43-0.08,0.62c0,0.23,0.03,0.42,0.1,0.58s0.15,0.29,0.25,0.4
			s0.22,0.2,0.35,0.26s0.27,0.12,0.4,0.15s0.27,0.06,0.4,0.07s0.24,0.02,0.33,0.02c0.48,0,0.94-0.07,1.37-0.21s0.84-0.37,1.25-0.69
			c0.09-0.07,0.16-0.16,0.22-0.26s0.1-0.2,0.12-0.3c0-0.02,0.01-0.04,0.01-0.07s0-0.06,0-0.09c0-0.05-0.01-0.11-0.04-0.16
			S338.94,44.42,338.84,44.42z M336.04,42.75c0.11-0.15,0.24-0.3,0.39-0.43s0.3-0.25,0.47-0.34s0.33-0.13,0.51-0.13
			c0.11,0,0.2,0.03,0.28,0.08s0.12,0.13,0.12,0.24c0,0.02,0,0.04,0,0.05s0,0.03-0.01,0.05c-0.03,0.11-0.1,0.22-0.21,0.32
			s-0.25,0.19-0.42,0.27s-0.38,0.15-0.61,0.2s-0.49,0.09-0.77,0.11C335.84,43.04,335.93,42.9,336.04,42.75z"/>
		<path d="M343.93,40.54c-0.11-0.04-0.24-0.07-0.38-0.08s-0.26-0.02-0.38-0.02c-0.13,0-0.25,0.01-0.37,0.04s-0.23,0.06-0.34,0.11
			s-0.22,0.1-0.33,0.17s-0.22,0.14-0.34,0.22c-0.16,0.08-0.31,0.18-0.46,0.29s-0.28,0.24-0.39,0.37s-0.21,0.26-0.28,0.39
			s-0.1,0.25-0.1,0.35c0,0.06,0,0.12,0.01,0.18s0.02,0.11,0.04,0.16c0.03,0.13,0.08,0.24,0.14,0.34s0.14,0.19,0.22,0.26
			s0.17,0.14,0.27,0.2s0.2,0.1,0.3,0.14l0.2,0.08c0.1,0.04,0.2,0.08,0.32,0.13s0.22,0.1,0.32,0.15s0.18,0.11,0.24,0.17
			s0.1,0.12,0.1,0.19c0,0.04-0.01,0.08-0.02,0.12c-0.02,0.09-0.1,0.17-0.24,0.25s-0.31,0.15-0.51,0.21s-0.41,0.11-0.64,0.15
			s-0.43,0.06-0.61,0.06c-0.06,0-0.11,0-0.15-0.01s-0.07-0.02-0.11-0.03s-0.06-0.02-0.08-0.03s-0.05-0.01-0.08-0.01
			c-0.04,0-0.07,0.01-0.11,0.04s-0.08,0.06-0.11,0.11s-0.06,0.09-0.09,0.13s-0.04,0.09-0.04,0.13c0,0.08,0.03,0.16,0.1,0.23
			s0.14,0.15,0.24,0.21s0.2,0.11,0.31,0.15s0.22,0.06,0.31,0.06c0.19,0,0.39-0.03,0.62-0.08s0.45-0.13,0.67-0.22s0.44-0.2,0.65-0.32
			s0.39-0.25,0.54-0.4c0.02-0.02,0.05-0.06,0.09-0.12s0.07-0.13,0.1-0.21s0.06-0.15,0.09-0.23s0.05-0.15,0.06-0.21
			c0.02-0.07,0.03-0.13,0.04-0.18s0.01-0.1,0.01-0.15c0-0.11-0.02-0.2-0.05-0.28s-0.08-0.15-0.13-0.21s-0.13-0.12-0.21-0.17
			s-0.18-0.11-0.28-0.16c-0.08-0.04-0.17-0.08-0.28-0.13s-0.22-0.09-0.33-0.14s-0.23-0.09-0.34-0.14s-0.21-0.09-0.3-0.14
			c-0.07-0.03-0.12-0.07-0.16-0.11s-0.06-0.1-0.06-0.16c0-0.06,0.03-0.13,0.09-0.21s0.14-0.15,0.23-0.23s0.2-0.15,0.32-0.23
			s0.24-0.14,0.37-0.2s0.25-0.1,0.37-0.13s0.22-0.05,0.31-0.05c0.07,0,0.14,0.02,0.19,0.05s0.1,0.07,0.15,0.11s0.1,0.08,0.16,0.11
			s0.13,0.05,0.22,0.05c0.05,0,0.1-0.03,0.14-0.08s0.07-0.11,0.1-0.18s0.05-0.14,0.06-0.21s0.02-0.13,0.02-0.17
			c0-0.14-0.04-0.25-0.11-0.34S344.04,40.58,343.93,40.54z"/>
		<path d="M347.76,38.52c-0.04-0.05-0.07-0.09-0.11-0.13c-0.03-0.03-0.07-0.06-0.11-0.09s-0.08-0.04-0.12-0.04s-0.1,0.01-0.19,0.04
			s-0.17,0.06-0.23,0.1c-0.13,0.09-0.22,0.2-0.27,0.32s-0.09,0.22-0.11,0.3c-0.01,0.03-0.01,0.06-0.02,0.1s-0.01,0.07-0.01,0.11
			c0,0.02,0,0.05,0.01,0.08s0.03,0.08,0.07,0.14c0.07,0.1,0.14,0.17,0.18,0.2s0.12,0.05,0.21,0.05c0.07,0,0.15-0.01,0.25-0.04
			s0.18-0.07,0.27-0.11s0.16-0.11,0.23-0.18s0.11-0.14,0.13-0.23c0.01-0.03,0.02-0.07,0.03-0.12s0.02-0.11,0.02-0.17
			c0-0.09-0.01-0.16-0.04-0.22S347.85,38.52,347.76,38.52z"/>
		<path d="M347,41.03c-0.05-0.03-0.1-0.05-0.17-0.06s-0.13-0.02-0.19-0.02c-0.09,0-0.17,0.01-0.23,0.04s-0.12,0.06-0.16,0.1
			s-0.08,0.07-0.1,0.11s-0.04,0.06-0.04,0.08c-0.08,0.33-0.17,0.67-0.26,1.03s-0.19,0.7-0.28,1.03s-0.18,0.65-0.26,0.96
			s-0.15,0.56-0.21,0.79l-0.17,0.69c-0.01,0.02-0.01,0.04-0.01,0.05s0,0.03,0,0.05c0,0.07,0.01,0.14,0.04,0.21s0.07,0.14,0.12,0.21
			s0.12,0.11,0.2,0.16s0.17,0.06,0.27,0.06c0.05,0,0.1-0.01,0.14-0.04s0.07-0.05,0.1-0.09s0.05-0.07,0.06-0.11s0.03-0.06,0.04-0.09
			c0.18-0.7,0.36-1.4,0.55-2.1s0.38-1.4,0.56-2.09l0.16-0.62c0-0.01,0.01-0.02,0.01-0.04s0-0.03,0-0.04c0-0.06-0.01-0.11-0.04-0.16
			S347.05,41.06,347,41.03z"/>
		<path d="M352.55,40.91c-0.08-0.06-0.16-0.1-0.24-0.14s-0.17-0.06-0.24-0.08c-0.07-0.02-0.13-0.04-0.2-0.05s-0.13-0.02-0.2-0.02
			c-0.17,0-0.33,0.03-0.48,0.09s-0.3,0.14-0.44,0.24s-0.27,0.2-0.39,0.32s-0.24,0.24-0.35,0.35c0-0.04,0-0.09,0.01-0.16
			s0.01-0.13,0.01-0.18c0-0.1-0.01-0.2-0.02-0.3s-0.04-0.18-0.08-0.25s-0.09-0.13-0.16-0.18s-0.16-0.07-0.27-0.07
			c-0.12,0-0.2,0.03-0.25,0.08s-0.1,0.15-0.14,0.3c-0.03,0.1-0.05,0.21-0.06,0.33s-0.02,0.24-0.02,0.36c0,0.04,0,0.07,0,0.1
			s0,0.06,0.01,0.1c-0.05,0.27-0.1,0.57-0.17,0.89s-0.13,0.65-0.21,0.99s-0.14,0.67-0.21,1s-0.13,0.63-0.18,0.9
			c-0.02,0.07-0.03,0.14-0.03,0.21c0,0.14,0.04,0.27,0.12,0.38s0.21,0.16,0.37,0.16c0.11,0,0.2-0.02,0.28-0.06s0.14-0.09,0.18-0.15
			c0.04-0.09,0.06-0.2,0.07-0.32s0.01-0.24,0.01-0.36v-0.15c0.09-0.39,0.19-0.76,0.28-1.12s0.18-0.69,0.26-1.01
			c0.1-0.13,0.21-0.28,0.34-0.45s0.27-0.32,0.43-0.47s0.32-0.27,0.5-0.37s0.37-0.15,0.57-0.15c0.02,0,0.04,0,0.06,0
			s0.04,0,0.06,0.01c0.01,0.01,0.03,0.04,0.05,0.07s0.04,0.08,0.07,0.12s0.05,0.09,0.08,0.13s0.06,0.08,0.08,0.1
			c0.06,0.05,0.14,0.1,0.24,0.13s0.18,0.05,0.24,0.05s0.13-0.02,0.18-0.06s0.1-0.08,0.14-0.14s0.07-0.12,0.1-0.19
			s0.04-0.13,0.04-0.19c0-0.15-0.04-0.3-0.13-0.45S352.68,41,352.55,40.91z"/>
		<path d="M358.06,44.49c-0.03-0.05-0.09-0.07-0.19-0.07s-0.21,0.03-0.34,0.1s-0.26,0.14-0.4,0.24c-0.11,0.07-0.23,0.15-0.36,0.23
			s-0.27,0.15-0.42,0.21s-0.31,0.12-0.48,0.16s-0.34,0.06-0.53,0.06c-0.32,0-0.56-0.06-0.74-0.19s-0.27-0.3-0.27-0.53
			c0-0.1,0.01-0.21,0.04-0.31s0.06-0.2,0.09-0.27c0.16-0.02,0.35-0.04,0.57-0.07s0.45-0.07,0.68-0.13s0.47-0.12,0.71-0.21
			s0.46-0.18,0.66-0.31s0.38-0.27,0.52-0.43s0.25-0.36,0.3-0.57c0.04-0.12,0.05-0.25,0.05-0.38c0-0.16-0.03-0.3-0.08-0.44
			s-0.14-0.25-0.25-0.35s-0.25-0.17-0.42-0.23s-0.37-0.08-0.59-0.08c-0.27,0-0.52,0.04-0.75,0.13s-0.46,0.21-0.66,0.35
			s-0.39,0.3-0.56,0.47s-0.32,0.35-0.45,0.52s-0.24,0.33-0.33,0.48s-0.16,0.26-0.2,0.35c-0.15,0.04-0.27,0.12-0.36,0.23
			s-0.13,0.26-0.13,0.43c0,0.09,0.02,0.15,0.07,0.2s0.09,0.07,0.14,0.08c-0.05,0.23-0.08,0.43-0.08,0.62c0,0.23,0.03,0.42,0.1,0.58
			s0.15,0.29,0.25,0.4s0.22,0.2,0.35,0.26s0.27,0.12,0.4,0.15s0.27,0.06,0.4,0.07s0.24,0.02,0.33,0.02c0.48,0,0.94-0.07,1.37-0.21
			s0.84-0.37,1.25-0.69c0.09-0.07,0.16-0.16,0.22-0.26s0.1-0.2,0.12-0.3c0-0.02,0.01-0.04,0.01-0.07s0-0.06,0-0.09
			C358.1,44.59,358.09,44.54,358.06,44.49z M355.08,42.75c0.11-0.15,0.24-0.3,0.39-0.43s0.3-0.25,0.47-0.34s0.33-0.13,0.51-0.13
			c0.11,0,0.2,0.03,0.28,0.08s0.12,0.13,0.12,0.24c0,0.02,0,0.04,0,0.05s0,0.03-0.01,0.05c-0.03,0.11-0.1,0.22-0.21,0.32
			s-0.25,0.19-0.42,0.27s-0.38,0.15-0.61,0.2s-0.49,0.09-0.77,0.11C354.88,43.04,354.97,42.9,355.08,42.75z"/>
		<path d="M28.22,15.79c-0.31-0.32-0.69-0.57-1.13-0.75s-0.94-0.27-1.5-0.27c-0.5,0-1.1,0.1-1.79,0.29s-1.39,0.42-2.1,0.68
			s-1.35,0.51-1.95,0.76s-1.03,0.44-1.31,0.56c-0.11,0-0.25,0.02-0.42,0.07s-0.34,0.1-0.52,0.16s-0.33,0.12-0.47,0.16
			s-0.23,0.07-0.28,0.07c-0.34,0.05-0.78,0.1-1.31,0.16s-1.04,0.19-1.54,0.39s-0.92,0.48-1.28,0.86s-0.54,0.88-0.54,1.52
			c0,0.31,0.05,0.62,0.14,0.91s0.23,0.55,0.42,0.77s0.41,0.39,0.67,0.53s0.55,0.2,0.88,0.2c0.09,0,0.22-0.04,0.39-0.11
			s0.34-0.14,0.52-0.22s0.36-0.16,0.53-0.23s0.31-0.13,0.42-0.14c0.16-0.05,0.46-0.15,0.91-0.3s0.98-0.34,1.59-0.55
			s1.25-0.44,1.93-0.68s1.32-0.47,1.93-0.68s1.16-0.39,1.64-0.55s0.82-0.26,1.01-0.3c-0.02,0.05-0.03,0.11-0.05,0.18
			s-0.04,0.14-0.07,0.2c-0.03,0.08-0.06,0.16-0.09,0.23c-0.73,1.59-1.67,3.13-2.81,4.62s-2.54,2.77-4.2,3.84
			c-0.52,0.33-1.09,0.69-1.72,1.08s-1.28,0.75-1.95,1.08s-1.33,0.6-1.99,0.82s-1.28,0.33-1.84,0.33c-0.55,0-1.11-0.11-1.68-0.33
			s-1.1-0.48-1.58-0.8h0.02c-0.92-0.73-1.63-1.48-2.11-2.24s-0.73-1.67-0.73-2.73c0-1.3,0.29-2.65,0.86-4.07s1.33-2.81,2.29-4.18
			s2.05-2.7,3.3-3.98s2.56-2.44,3.93-3.48s2.74-1.92,4.11-2.65s2.67-1.22,3.89-1.49h0.63c0.38,0,0.7,0.12,0.97,0.35
			s0.55,0.49,0.83,0.76s0.59,0.53,0.91,0.76s0.73,0.35,1.2,0.35c0.16,0,0.31-0.02,0.46-0.05s0.25-0.15,0.32-0.35l-0.05,0.05
			c0.14-0.17,0.26-0.41,0.35-0.73s0.16-0.53,0.19-0.66c0.08-0.31,0.12-0.6,0.12-0.87c0-0.59-0.16-1.13-0.47-1.62
			s-0.72-0.89-1.22-1.23s-1.06-0.6-1.69-0.79s-1.26-0.28-1.9-0.28c-0.8,0-1.61,0.12-2.45,0.36s-1.66,0.55-2.47,0.93
			s-1.61,0.8-2.38,1.27s-1.5,0.93-2.17,1.38c-1.11,0.75-2.22,1.62-3.34,2.6s-2.19,2.05-3.22,3.2s-1.99,2.35-2.87,3.6
			s-1.65,2.52-2.31,3.8s-1.17,2.55-1.55,3.81S0,24.65,0,25.8c0,1.08,0.15,2.07,0.45,2.99s0.71,1.75,1.24,2.5s1.17,1.41,1.91,1.98
			s1.56,1.06,2.45,1.46c0.16,0.08,0.33,0.16,0.53,0.23s0.44,0.14,0.73,0.2s0.64,0.1,1.07,0.14s0.94,0.06,1.55,0.06
			c0.3,0,0.64-0.03,1.04-0.09s0.8-0.14,1.22-0.25s0.81-0.21,1.2-0.33s0.71-0.23,0.97-0.34l-0.02,0.02c1.66-0.61,3.27-1.38,4.83-2.32
			s2.99-2.02,4.29-3.25s2.43-2.59,3.39-4.1s1.68-3.14,2.14-4.89c0.08-0.33,0.13-0.61,0.16-0.83s0.05-0.45,0.05-0.67
			c0-0.52-0.08-0.99-0.25-1.42S28.53,16.11,28.22,15.79z"/>
		<path d="M50.81,14.59c-0.19-0.21-0.44-0.38-0.75-0.5s-0.7-0.19-1.17-0.19c-0.25,0-0.49,0.02-0.71,0.05s-0.52,0.09-0.88,0.16
			c-0.36-0.05-0.76-0.09-1.21-0.14s-0.85-0.07-1.21-0.07c-0.81,0-1.63,0.08-2.46,0.25s-1.66,0.54-2.48,1.11
			c-2.14,1.48-3.93,3.28-5.38,5.38s-2.46,4.39-3.06,6.86c-0.14,0.55-0.25,1.03-0.32,1.45s-0.11,0.83-0.11,1.22
			c0,0.88,0.18,1.64,0.55,2.3s0.96,1.31,1.79,1.97c0.3,0.23,0.66,0.42,1.08,0.56s0.87,0.21,1.34,0.21c0.58,0,1.2-0.16,1.86-0.48
			s1.33-0.71,2-1.18s1.32-0.96,1.95-1.48s1.2-0.96,1.71-1.34c0,0.94-0.05,1.72-0.16,2.36s-0.16,1.18-0.16,1.63
			c0,0.22,0.02,0.41,0.07,0.57s0.15,0.3,0.3,0.42s0.38,0.21,0.67,0.27s0.68,0.09,1.16,0.09c0.38,0,0.68-0.07,0.91-0.21
			s0.43-0.31,0.59-0.5s0.27-0.4,0.34-0.61s0.13-0.39,0.18-0.53c0.14-0.48,0.23-1.01,0.28-1.57s0.1-1.18,0.16-1.85l3.09-12.35
			c0.13-0.38,0.25-0.75,0.38-1.11s0.19-0.75,0.19-1.16c0-0.3-0.04-0.58-0.13-0.86S51,14.8,50.81,14.59z M46.42,19.73
			c-0.09,0.59-0.19,1.12-0.32,1.57c-0.22,0.78-0.57,1.57-1.04,2.36s-1.02,1.56-1.64,2.31s-1.27,1.46-1.97,2.14s-1.38,1.29-2.05,1.84
			c-0.5,0.41-1.04,0.75-1.61,1.04s-1.18,0.43-1.84,0.43c-0.42,0-0.7-0.17-0.82-0.5s-0.19-0.71-0.19-1.14c0-0.41,0.04-0.81,0.11-1.22
			s0.14-0.72,0.2-0.94c0.2-0.78,0.5-1.58,0.88-2.4s0.84-1.62,1.37-2.39s1.12-1.5,1.77-2.18s1.33-1.27,2.05-1.77s1.46-0.9,2.24-1.2
			s1.54-0.45,2.31-0.45c0.27,0,0.45,0.1,0.54,0.29s0.14,0.39,0.14,0.6C46.55,18.61,46.5,19.14,46.42,19.73z"/>
		<path d="M74.31,35.58c0.27-0.3,0.5-0.75,0.67-1.36c0.05-0.16,0.08-0.39,0.11-0.7s0.04-0.67,0.04-1.08c0-0.89-0.03-1.73-0.08-2.53
			s-0.08-1.59-0.08-2.39c0-0.47,0.04-1,0.11-1.58s0.16-1.2,0.28-1.85s0.25-1.3,0.4-1.95s0.29-1.26,0.43-1.84
			c0.25-0.98,0.48-1.96,0.69-2.94s0.32-1.8,0.32-2.47c0-0.58-0.05-1.05-0.16-1.42s-0.27-0.66-0.49-0.88s-0.48-0.37-0.8-0.46
			S75.06,12,74.67,12c-0.61,0-1.04,0.11-1.3,0.34s-0.45,0.64-0.57,1.23l-0.61,3.12c-0.09,0.45-0.23,1.06-0.4,1.82
			s-0.38,1.57-0.62,2.43s-0.52,1.71-0.84,2.57s-0.67,1.61-1.04,2.26l-0.61,1.05c-0.31,0.52-0.71,1.11-1.21,1.77
			s-1.04,1.29-1.65,1.88s-1.25,1.08-1.92,1.49s-1.34,0.61-1.99,0.61c-0.38,0-0.7-0.12-0.96-0.35s-0.48-0.53-0.66-0.88
			s-0.3-0.73-0.39-1.14s-0.13-0.77-0.13-1.1s0.08-0.81,0.25-1.45s0.4-1.47,0.7-2.48s0.68-2.25,1.11-3.69s0.92-3.14,1.45-5.1
			c0.09-0.3,0.14-0.62,0.14-0.96c0-0.44-0.09-0.81-0.27-1.13s-0.47-0.48-0.88-0.49c-0.23-0.05-0.48-0.09-0.73-0.14
			c-0.22-0.03-0.45-0.07-0.68-0.11s-0.44-0.06-0.61-0.06c-0.06,0-0.15,0.02-0.26,0.07s-0.23,0.13-0.36,0.23s-0.26,0.25-0.38,0.43
			s-0.21,0.39-0.27,0.64c-0.09,0.36-0.2,0.78-0.33,1.25s-0.28,1.05-0.46,1.72s-0.39,1.45-0.62,2.34s-0.5,1.92-0.8,3.09
			c-0.09,0.38-0.21,0.8-0.36,1.28s-0.29,0.98-0.41,1.52s-0.23,1.1-0.33,1.68s-0.14,1.16-0.14,1.73c0,1.03,0.18,2.05,0.54,3.05
			s0.97,1.9,1.83,2.7c0.19,0.17,0.44,0.36,0.75,0.55s0.64,0.37,0.98,0.53s0.68,0.29,1,0.39s0.58,0.15,0.79,0.15
			c1.02,0,1.96-0.24,2.82-0.71s1.67-1.07,2.4-1.77s1.41-1.46,2.02-2.27s1.17-1.55,1.69-2.2l0.21-0.07l0.26,4.43
			c0.02,0.22,0.05,0.43,0.09,0.64s0.14,0.4,0.29,0.57s0.36,0.31,0.62,0.41s0.63,0.15,1.08,0.15C73.57,36.02,74.04,35.88,74.31,35.58
			z"/>
		<path d="M87.54,14.74c-0.42,0-0.79,0.04-1.11,0.13s-0.59,0.26-0.82,0.53s-0.4,0.64-0.53,1.14s-0.2,1.14-0.23,1.96
			c-0.02,0.33-0.03,0.66-0.04,1s-0.05,0.69-0.13,1.07c-0.23,1.28-0.5,2.61-0.81,3.98s-0.64,2.73-1.02,4.07s-0.79,2.63-1.23,3.88
			s-0.92,2.39-1.42,3.42c-0.31,0.66-0.74,1.37-1.29,2.13s-1.17,1.45-1.88,2.04c-0.33,0.28-0.77,0.57-1.32,0.86s-1.1,0.62-1.63,0.98
			s-0.99,0.79-1.37,1.27s-0.57,1.04-0.57,1.7c0,0.41,0.16,0.79,0.48,1.14s0.8,0.53,1.44,0.53c0.63,0,1.21-0.09,1.76-0.28
			s1.09-0.46,1.63-0.83s1.08-0.82,1.63-1.37s1.13-1.19,1.76-1.92c0.19-0.22,0.39-0.46,0.62-0.73s0.46-0.54,0.69-0.83
			s0.46-0.58,0.67-0.87s0.39-0.57,0.55-0.83c0.67-1.2,1.3-2.51,1.89-3.91s1.12-2.84,1.61-4.29s0.91-2.88,1.29-4.29
			s0.69-2.71,0.95-3.91s0.45-2.26,0.59-3.16s0.2-1.59,0.2-2.04c0-0.83-0.17-1.46-0.52-1.89S88.41,14.74,87.54,14.74z"/>
		<path d="M91.36,5.64c-0.17-0.23-0.4-0.41-0.69-0.54s-0.64-0.2-1.07-0.2c-0.31,0-0.61,0.07-0.88,0.2s-0.58,0.31-0.93,0.53
			c-0.44,0.28-0.8,0.63-1.1,1.05s-0.45,0.92-0.45,1.5c0,0.83,0.26,1.48,0.77,1.95s1.17,0.7,1.97,0.7c0.23,0,0.46-0.05,0.68-0.15
			s0.44-0.24,0.66-0.41c0.59-0.47,0.99-0.95,1.2-1.45s0.3-1.03,0.3-1.59c0-0.28-0.04-0.56-0.11-0.83S91.53,5.86,91.36,5.64z"/>
		<path d="M112.92,14.59c-0.19-0.21-0.44-0.38-0.75-0.5s-0.7-0.19-1.17-0.19c-0.25,0-0.49,0.02-0.71,0.05s-0.52,0.09-0.88,0.16
			c-0.36-0.05-0.76-0.09-1.21-0.14s-0.85-0.07-1.21-0.07c-0.81,0-1.63,0.08-2.46,0.25s-1.66,0.54-2.48,1.11
			c-2.14,1.48-3.93,3.28-5.38,5.38s-2.46,4.39-3.06,6.86c-0.14,0.55-0.25,1.03-0.32,1.45s-0.11,0.83-0.11,1.22
			c0,0.88,0.18,1.64,0.55,2.3s0.96,1.31,1.79,1.97c0.3,0.23,0.66,0.42,1.08,0.56s0.87,0.21,1.34,0.21c0.58,0,1.2-0.16,1.86-0.48
			s1.33-0.71,2-1.18s1.32-0.96,1.95-1.48s1.2-0.96,1.71-1.34c0,0.94-0.05,1.72-0.16,2.36s-0.16,1.18-0.16,1.63
			c0,0.22,0.02,0.41,0.07,0.57s0.15,0.3,0.3,0.42s0.38,0.21,0.67,0.27s0.68,0.09,1.16,0.09c0.38,0,0.68-0.07,0.91-0.21
			s0.43-0.31,0.59-0.5s0.27-0.4,0.34-0.61s0.13-0.39,0.18-0.53c0.14-0.48,0.23-1.01,0.28-1.57s0.1-1.18,0.16-1.85l3.09-12.35
			c0.13-0.38,0.25-0.75,0.38-1.11s0.19-0.75,0.19-1.16c0-0.3-0.04-0.58-0.13-0.86S113.11,14.8,112.92,14.59z M108.53,19.73
			c-0.09,0.59-0.19,1.12-0.32,1.57c-0.22,0.78-0.57,1.57-1.04,2.36s-1.02,1.56-1.64,2.31s-1.27,1.46-1.97,2.14s-1.38,1.29-2.05,1.84
			c-0.5,0.41-1.04,0.75-1.61,1.04s-1.18,0.43-1.84,0.43c-0.42,0-0.7-0.17-0.82-0.5s-0.19-0.71-0.19-1.14c0-0.41,0.04-0.81,0.11-1.22
			s0.14-0.72,0.2-0.94c0.2-0.78,0.5-1.58,0.88-2.4s0.84-1.62,1.37-2.39s1.12-1.5,1.77-2.18s1.33-1.27,2.05-1.77s1.46-0.9,2.24-1.2
			s1.54-0.45,2.31-0.45c0.27,0,0.45,0.1,0.54,0.29s0.14,0.39,0.14,0.6C108.66,18.61,108.61,19.14,108.53,19.73z"/>
		<path d="M170.14,11.14c-0.3-0.66-0.66-1.28-1.05-1.84s-0.82-1.07-1.25-1.52c-1.17-1.2-2.4-2.16-3.69-2.88s-2.66-1.27-4.13-1.66
			s-3.03-0.64-4.71-0.76s-3.5-0.18-5.47-0.18c-0.42,0-0.89,0.03-1.41,0.09s-1,0.17-1.44,0.32s-0.82,0.34-1.13,0.59
			s-0.46,0.54-0.46,0.9c0,0.22,0.04,0.44,0.12,0.66s0.17,0.43,0.28,0.64s0.22,0.41,0.34,0.59s0.21,0.32,0.29,0.43
			c0.17,0.17,0.43,0.3,0.77,0.4s0.69,0.16,1.04,0.2s0.67,0.06,0.96,0.07s0.46,0.01,0.53,0.01l-5.86,23.72
			c-0.83,0.08-1.61,0.18-2.36,0.32s-1.47,0.46-2.19,0.97c-0.41,0.3-0.7,0.61-0.88,0.95s-0.27,0.66-0.27,0.97
			c0,0.22,0.06,0.42,0.19,0.61s0.33,0.36,0.62,0.5s0.67,0.27,1.14,0.35s1.05,0.13,1.73,0.13c0.63,0,1.29-0.03,2-0.08
			s1.43-0.13,2.14-0.22s1.43-0.21,2.13-0.35s1.36-0.3,1.97-0.49h-0.02c1.36-0.34,2.76-0.73,4.2-1.17s2.85-0.95,4.24-1.55
			s2.73-1.29,4.03-2.09s2.49-1.74,3.57-2.82s2.04-2.33,2.86-3.73s1.46-3,1.91-4.82c0.08-0.36,0.14-0.79,0.19-1.29
			s0.07-0.98,0.07-1.43c0-0.84-0.09-1.64-0.28-2.4S170.45,11.81,170.14,11.14z M166.75,19.16c-0.38,0.87-0.89,1.7-1.54,2.48
			s-1.38,1.53-2.23,2.21s-1.73,1.32-2.65,1.91s-1.86,1.11-2.8,1.57s-1.84,0.86-2.68,1.18s-1.65,0.61-2.41,0.84s-1.44,0.43-2.03,0.59
			s-1.05,0.27-1.39,0.35l-0.54,0.12c0.19-0.81,0.38-1.64,0.59-2.48s0.4-1.66,0.59-2.46c0.77-3.22,1.56-6.39,2.39-9.52
			s1.83-6.2,3-9.23c0.83,0,1.71,0.11,2.64,0.32s1.85,0.52,2.75,0.93s1.78,0.89,2.61,1.46s1.57,1.22,2.2,1.95s1.14,1.52,1.51,2.37
			s0.56,1.75,0.56,2.71C167.32,17.39,167.13,18.29,166.75,19.16z"/>
		<path d="M184.43,5.18c-0.14-0.19-0.29-0.36-0.45-0.52c-0.13-0.13-0.27-0.24-0.43-0.35s-0.32-0.16-0.48-0.16s-0.41,0.06-0.77,0.18
			s-0.66,0.25-0.91,0.39c-0.52,0.38-0.88,0.8-1.08,1.27s-0.34,0.87-0.42,1.2c-0.03,0.13-0.06,0.25-0.08,0.39s-0.04,0.29-0.04,0.46
			c0,0.09,0.01,0.21,0.04,0.34s0.12,0.32,0.29,0.55c0.3,0.41,0.54,0.67,0.74,0.8s0.47,0.19,0.83,0.19c0.28,0,0.61-0.05,0.98-0.16
			s0.73-0.26,1.08-0.46s0.65-0.43,0.91-0.7s0.45-0.57,0.54-0.9c0.03-0.13,0.07-0.29,0.12-0.49s0.07-0.43,0.07-0.68
			c0-0.34-0.06-0.64-0.18-0.89S184.82,5.21,184.43,5.18z"/>
		<path d="M181.42,15.23c-0.2-0.11-0.42-0.19-0.67-0.25s-0.51-0.08-0.77-0.08c-0.36,0-0.67,0.05-0.94,0.16s-0.48,0.24-0.66,0.39
			s-0.3,0.3-0.4,0.45s-0.15,0.25-0.16,0.32c-0.33,1.33-0.68,2.7-1.05,4.1s-0.75,2.78-1.11,4.13s-0.71,2.62-1.04,3.82
			s-0.61,2.26-0.84,3.16l-0.68,2.74c-0.03,0.08-0.05,0.15-0.05,0.21s0,0.13,0,0.21c0,0.27,0.05,0.55,0.16,0.84s0.27,0.57,0.49,0.82
			s0.48,0.46,0.8,0.62s0.67,0.25,1.08,0.25c0.22,0,0.41-0.05,0.56-0.14s0.29-0.21,0.4-0.35s0.2-0.28,0.26-0.42s0.11-0.26,0.14-0.35
			c0.72-2.81,1.46-5.62,2.21-8.41s1.5-5.59,2.24-8.37l0.66-2.48c0.02-0.05,0.02-0.1,0.02-0.15s0-0.11,0-0.15
			c0-0.23-0.06-0.44-0.18-0.62S181.61,15.34,181.42,15.23z"/>
		<path d="M202.15,29.7c0.16-0.7,0.32-1.5,0.49-2.38s0.34-1.78,0.52-2.7s0.34-1.82,0.5-2.72s0.3-1.71,0.42-2.44s0.21-1.34,0.28-1.83
			s0.11-0.8,0.11-0.93c0-0.11-0.02-0.24-0.06-0.39s-0.09-0.28-0.15-0.39c-0.28-0.47-0.59-0.85-0.94-1.14s-0.71-0.51-1.11-0.66
			s-0.82-0.25-1.27-0.29s-0.91-0.07-1.39-0.07c-1.16,0-2.25,0.19-3.28,0.56s-2.06,0.98-3.09,1.83c-0.83,0.67-1.63,1.4-2.39,2.19
			s-1.47,1.62-2.11,2.5s-1.2,1.8-1.69,2.77s-0.85,1.97-1.1,3c-0.08,0.34-0.16,0.73-0.26,1.17s-0.14,0.84-0.14,1.22
			c0,0.59,0.16,1.16,0.47,1.7s0.7,1.01,1.15,1.42s0.93,0.73,1.44,0.98s0.96,0.38,1.37,0.38c0.69,0,1.38-0.13,2.07-0.39
			s1.38-0.59,2.05-1s1.33-0.87,1.97-1.38s1.26-1.03,1.85-1.55c-0.11,0.41-0.2,0.77-0.27,1.09s-0.15,0.63-0.25,0.93
			c-0.23,0.88-0.48,1.73-0.74,2.58s-0.58,1.67-0.96,2.47s-0.85,1.58-1.41,2.33s-1.23,1.48-2.03,2.18c-0.27,0.17-0.61,0.32-1.02,0.43
			s-0.86,0.22-1.32,0.32c-0.73,0.16-1.33,0.31-1.78,0.46s-0.81,0.33-1.08,0.55s-0.47,0.49-0.61,0.81s-0.27,0.74-0.4,1.25
			c-0.05,0.19-0.07,0.37-0.07,0.54c0,0.25,0.05,0.46,0.14,0.64s0.21,0.33,0.34,0.45s0.28,0.2,0.43,0.26s0.3,0.08,0.42,0.08
			c1.59,0,3.03-0.25,4.31-0.74s2.43-1.16,3.45-1.99s1.91-1.81,2.67-2.92s1.43-2.29,2-3.54s1.05-2.53,1.45-3.84
			S201.88,30.93,202.15,29.7z M199.69,19.93c-0.2,0.51-0.43,1.02-0.69,1.52s-0.52,0.98-0.77,1.42s-0.46,0.78-0.62,1.03
			c-0.36,0.59-0.85,1.22-1.46,1.88s-1.27,1.27-1.97,1.83s-1.39,1.03-2.09,1.39s-1.3,0.55-1.82,0.55c-0.33,0-0.55-0.13-0.68-0.38
			s-0.19-0.55-0.19-0.89c0-0.19,0.02-0.38,0.06-0.57s0.08-0.39,0.13-0.57c0.17-0.69,0.39-1.29,0.67-1.82s0.57-1.04,0.9-1.56
			c0.22-0.36,0.53-0.78,0.93-1.25s0.84-0.97,1.32-1.48s1-1.01,1.55-1.5s1.09-0.93,1.63-1.32s1.05-0.71,1.54-0.95
			s0.91-0.36,1.29-0.36h0.21c0.08,0.41,0.17,0.72,0.28,0.95s0.16,0.47,0.16,0.74C200.02,18.98,199.89,19.43,199.69,19.93z"/>
		<path d="M219.28,5.18c-0.14-0.19-0.29-0.36-0.45-0.52c-0.13-0.13-0.27-0.24-0.43-0.35s-0.32-0.16-0.48-0.16s-0.41,0.06-0.77,0.18
			s-0.66,0.25-0.91,0.39c-0.52,0.38-0.88,0.8-1.08,1.27s-0.34,0.87-0.42,1.2c-0.03,0.13-0.06,0.25-0.08,0.39s-0.04,0.29-0.04,0.46
			c0,0.09,0.01,0.21,0.04,0.34s0.12,0.32,0.29,0.55c0.3,0.41,0.54,0.67,0.74,0.8s0.47,0.19,0.83,0.19c0.28,0,0.61-0.05,0.98-0.16
			s0.73-0.26,1.08-0.46s0.65-0.43,0.91-0.7s0.45-0.57,0.54-0.9c0.03-0.13,0.07-0.29,0.12-0.49s0.07-0.43,0.07-0.68
			c0-0.34-0.06-0.64-0.18-0.89S219.67,5.21,219.28,5.18z"/>
		<path d="M216.27,15.23c-0.2-0.11-0.42-0.19-0.67-0.25s-0.51-0.08-0.77-0.08c-0.36,0-0.67,0.05-0.94,0.16s-0.48,0.24-0.66,0.39
			s-0.3,0.3-0.4,0.45s-0.15,0.25-0.16,0.32c-0.33,1.33-0.68,2.7-1.05,4.1s-0.75,2.78-1.11,4.13s-0.71,2.62-1.04,3.82
			s-0.61,2.26-0.84,3.16l-0.68,2.74c-0.03,0.08-0.05,0.15-0.05,0.21s0,0.13,0,0.21c0,0.27,0.05,0.55,0.16,0.84s0.27,0.57,0.49,0.82
			s0.48,0.46,0.8,0.62s0.67,0.25,1.08,0.25c0.22,0,0.41-0.05,0.56-0.14s0.29-0.21,0.4-0.35s0.2-0.28,0.26-0.42s0.11-0.26,0.14-0.35
			c0.72-2.81,1.46-5.62,2.21-8.41s1.5-5.59,2.24-8.37l0.66-2.48c0.02-0.05,0.02-0.1,0.02-0.15s0-0.11,0-0.15
			c0-0.23-0.06-0.44-0.18-0.62S216.46,15.34,216.27,15.23z"/>
		<path d="M241.7,13.92c-0.2-0.09-0.42-0.16-0.68-0.2s-0.51-0.06-0.76-0.06c-0.17,0-0.39,0.03-0.64,0.08s-0.57,0.13-0.95,0.21
			s-0.82,0.19-1.35,0.32s-1.14,0.26-1.86,0.4c-0.66,0.13-1.31,0.25-1.97,0.38s-1.41,0.26-2.25,0.4l1.71-6.56
			c0.08-0.31,0.12-0.66,0.12-1.05c0-0.36-0.05-0.72-0.14-1.08s-0.23-0.68-0.42-0.96s-0.43-0.51-0.73-0.68s-0.66-0.26-1.08-0.26
			c-0.48,0-0.85,0.13-1.1,0.4s-0.42,0.55-0.52,0.84c-0.13,0.38-0.2,0.66-0.22,0.87s-0.04,0.37-0.04,0.49v0.23
			c0,0.33,0.01,0.59,0.02,0.77s0.02,0.38,0.02,0.59c0,0.17-0.04,0.4-0.11,0.69s-0.17,0.66-0.29,1.13s-0.28,1.02-0.46,1.69
			s-0.37,1.45-0.57,2.36c-0.06,0.25-0.15,0.5-0.26,0.76s-0.31,0.39-0.61,0.39h-3.14c-0.23,0-0.45,0.07-0.63,0.22
			s-0.34,0.33-0.46,0.54s-0.21,0.43-0.27,0.64s-0.09,0.4-0.09,0.54c0,0.36,0.11,0.68,0.33,0.95s0.5,0.5,0.84,0.69
			s0.73,0.34,1.15,0.45s0.84,0.17,1.24,0.19c-0.33,1.3-0.64,2.65-0.94,4.07s-0.45,2.78-0.45,4.09c0,0.97,0.14,1.88,0.42,2.72
			s0.69,1.58,1.23,2.21s1.2,1.13,1.99,1.5s1.69,0.55,2.71,0.55c0.66,0,1.34-0.07,2.04-0.21s1.35-0.4,1.95-0.77
			c0.34-0.22,0.71-0.46,1.1-0.74s0.77-0.56,1.13-0.87s0.69-0.62,1-0.95s0.55-0.66,0.74-1.01c0.55-0.98,1.08-1.96,1.61-2.94
			s0.91-1.95,1.16-2.92c0.02-0.06,0.02-0.16,0.02-0.28c0-0.17-0.04-0.32-0.13-0.45s-0.19-0.23-0.32-0.3s-0.25-0.13-0.39-0.16
			s-0.25-0.05-0.34-0.05c-0.3,0-0.54,0.14-0.73,0.42c-0.55,0.75-1.14,1.54-1.79,2.37s-1.34,1.59-2.06,2.29s-1.49,1.27-2.29,1.72
			s-1.61,0.68-2.44,0.68c-0.48,0-0.89-0.08-1.21-0.25s-0.57-0.39-0.76-0.67s-0.32-0.61-0.4-1s-0.12-0.79-0.12-1.21
			c0-0.33,0.04-0.79,0.11-1.37s0.18-1.25,0.33-1.99s0.33-1.54,0.55-2.4s0.48-1.73,0.77-2.63c0.14,0,0.32-0.02,0.55-0.05
			s0.52-0.08,0.88-0.14s0.79-0.16,1.3-0.28s1.12-0.28,1.84-0.47c0.48-0.13,0.98-0.25,1.5-0.38s1.01-0.24,1.49-0.35
			s0.91-0.21,1.31-0.3s0.72-0.16,0.97-0.21c0.3-0.06,0.59-0.16,0.89-0.29s0.56-0.3,0.8-0.52s0.43-0.46,0.57-0.75s0.22-0.62,0.22-1
			c0-0.28-0.06-0.51-0.19-0.68S241.89,14.02,241.7,13.92z"/>
		<path d="M260.65,35.86c0.23-0.14,0.43-0.31,0.59-0.5s0.27-0.4,0.34-0.61s0.13-0.39,0.18-0.53c0.14-0.48,0.23-1.01,0.28-1.57
			s0.1-1.18,0.16-1.85l3.09-12.35c0.13-0.38,0.25-0.75,0.38-1.11s0.19-0.75,0.19-1.16c0-0.3-0.04-0.58-0.13-0.86
			s-0.22-0.52-0.41-0.73s-0.44-0.38-0.75-0.5s-0.7-0.19-1.17-0.19c-0.25,0-0.49,0.02-0.71,0.05s-0.52,0.09-0.88,0.16
			c-0.36-0.05-0.76-0.09-1.21-0.14s-0.85-0.07-1.21-0.07c-0.81,0-1.63,0.08-2.46,0.25s-1.66,0.54-2.48,1.11
			c-2.14,1.48-3.93,3.28-5.38,5.38s-2.46,4.39-3.06,6.86c-0.14,0.55-0.25,1.03-0.32,1.45s-0.11,0.83-0.11,1.22
			c0,0.88,0.18,1.64,0.55,2.3s0.96,1.31,1.79,1.97c0.3,0.23,0.66,0.42,1.08,0.56s0.87,0.21,1.34,0.21c0.58,0,1.2-0.16,1.86-0.48
			s1.33-0.71,2-1.18s1.32-0.96,1.95-1.48s1.2-0.96,1.71-1.34c0,0.94-0.05,1.72-0.16,2.36s-0.16,1.18-0.16,1.63
			c0,0.22,0.02,0.41,0.07,0.57s0.15,0.3,0.3,0.42s0.38,0.21,0.67,0.27s0.68,0.09,1.16,0.09C260.11,36.07,260.41,36,260.65,35.86z
			 M257.92,25.97c-0.62,0.75-1.27,1.46-1.97,2.14s-1.38,1.29-2.05,1.84c-0.5,0.41-1.04,0.75-1.61,1.04s-1.18,0.43-1.84,0.43
			c-0.42,0-0.7-0.17-0.82-0.5s-0.19-0.71-0.19-1.14c0-0.41,0.04-0.81,0.11-1.22s0.14-0.72,0.2-0.94c0.2-0.78,0.5-1.58,0.88-2.4
			s0.84-1.62,1.37-2.39s1.12-1.5,1.77-2.18s1.33-1.27,2.05-1.77s1.46-0.9,2.24-1.2s1.54-0.45,2.31-0.45c0.27,0,0.45,0.1,0.54,0.29
			s0.14,0.39,0.14,0.6c0,0.47-0.04,1-0.13,1.59s-0.19,1.12-0.32,1.57c-0.22,0.78-0.57,1.57-1.04,2.36S258.54,25.22,257.92,25.97z"/>
		<path d="M273.27,35.92c0.3-0.32,0.54-0.72,0.71-1.2s0.29-0.99,0.35-1.55s0.09-1.07,0.09-1.54v-0.56c0.08-0.55,0.2-1.25,0.35-2.1
			s0.35-1.75,0.59-2.68l5.86-23.48c0.03-0.16,0.07-0.32,0.12-0.48s0.07-0.31,0.07-0.43c0-0.28-0.09-0.54-0.28-0.77
			s-0.42-0.43-0.69-0.6s-0.56-0.29-0.87-0.39S278.99,0,278.74,0c-0.45,0-0.82,0.18-1.11,0.53s-0.52,0.79-0.69,1.32
			s-0.3,1.11-0.38,1.73s-0.14,1.2-0.19,1.73l-6.05,24c-0.08,0.3-0.16,0.64-0.23,1.04s-0.15,0.8-0.22,1.2s-0.13,0.78-0.18,1.15
			s-0.07,0.68-0.07,0.93c0,0.28,0.05,0.58,0.14,0.9s0.24,0.62,0.45,0.9s0.46,0.51,0.77,0.69s0.68,0.27,1.1,0.27
			C272.57,36.4,272.96,36.24,273.27,35.92z"/>
	</g>
</g>
</svg>
